# "Generated by fontforge, http://fontforge.sourceforge.net"
# "Copyright (c) 2015, romeovs "

name: scientifica
family: scientifica
foundry: nerdypepper
copyright: Copyright (c) 2016, romeovs
revision: 1.0.0
point-size: 11
slant: italic
setwidth: medium
dpi: 75 75
spacing: proportional
x-height: 4
cap-height: 4
ascent: 9
offset: 0 -2
encoding: unicode
converter: monobit v0.12
source-name: scientificaItalic-11.bdf
source-format: BDF v2.1
bdf.FONTNAME-REGISTRY: ""
bdf.CHARSET-COLLECTIONS: "ASCII ISOLatin1Encoding ISO8859-2 ISO8859-9 ISO8859-4 Symbol ISO10646-1"
bdf.FONT-NAME: "scientificaItalic"
bdf.UNDERLINE-POSITION: -1
bdf.UNDERLINE-THICKNESS: 1
bdf.RAW-ASCENT: 818
bdf.RAW-DESCENT: 181
bdf.NORM-SPACE: 5
bdf.FIGURE-WIDTH: 5
bdf.AVG-LOWERCASE-WIDTH: 50
bdf.AVG-UPPERCASE-WIDTH: 50

u+0020:
space:
    .....
    .....
    .....
    .....
    .....
    .....
    .....
    .....
    .....
    .....
    .....
    .....

u+0021:
exclam:
    .....
    .....
    ..@..
    ..@..
    ..@..
    ..@..
    ..@..
    .....
    ..@..
    .....
    .....
    .....

u+0022:
quotedbl:
    .....
    .....
    .....
    .....
    .....
    .....
    .@.@.
    .@.@.
    .@.@.
    .....
    .....
    .....

u+0023:
numbersign:
    .....
    .....
    .@.@.
    @@@@@
    .@.@.
    @@@@@
    .@.@.
    .....
    .....
    .....
    .....
    .....

u+0024:
dollar:
    .....
    ..@..
    ..@..
    .@@@.
    .@...
    .@@@.
    ...@.
    .@@@.
    ..@..
    ..@..
    .....
    .....

u+0025:
percent:
    .....
    .....
    .....
    @..@.
    ..@..
    .@...
    @..@.
    .....
    .....
    .....
    .....
    .....

u+0026:
ampersand:
    .....
    .....
    .@@@.
    @....
    @..@.
    .@@@@
    @..@.
    @..@.
    @@@.@
    .....
    .....
    .....

u+0027:
quotesingle:
    .....
    .....
    .....
    .....
    .....
    .....
    ..@..
    ..@..
    ..@..
    .....
    .....
    .....

u+0028:
parenleft:
    .....
    ..@@.
    .@...
    @....
    @....
    @....
    @....
    @....
    .@...
    ..@@.
    .....
    .....

u+0029:
parenright:
    .....
    @@...
    ..@..
    ...@.
    ...@.
    ...@.
    ...@.
    ...@.
    ..@..
    @@...
    .....
    .....

u+002a:
asterisk:
    .....
    .....
    .@.@.
    ..@..
    @@@@@
    ..@..
    .@.@.
    .....
    .....
    .....
    .....
    .....

u+002b:
plus:
    .....
    .....
    ..@..
    ..@..
    @@@@@
    ..@..
    ..@..
    .....
    .....
    .....
    .....
    .....

u+002c:
comma:
    .....
    ..@..
    ..@..
    .@...
    .....
    .....
    .....
    .....
    .....
    .....
    .....
    .....

u+002d:
hyphen:
    .....
    .....
    .....
    .....
    @@@@.
    .....
    .....
    .....
    .....
    .....
    .....
    .....

u+002e:
period:
    .....
    .....
    ..@..
    .....
    .....
    .....
    .....
    .....
    .....
    .....
    .....
    .....

u+002f:
slash:
    .....
    ...@.
    ...@.
    ..@..
    ..@..
    .@...
    .@...
    @....
    @....
    .....
    .....
    .....

u+0030:
zero:
    .....
    .....
    .@@..
    @..@.
    @.@@.
    @@.@.
    @..@.
    @..@.
    .@@..
    .....
    .....
    .....

u+0031:
one:
    .....
    .....
    ..@..
    .@@..
    ..@..
    ..@..
    ..@..
    ..@..
    .@@@.
    .....
    .....
    .....

u+0032:
two:
    .....
    .....
    .@@..
    @..@.
    ...@.
    ..@..
    .@...
    @....
    @@@@.
    .....
    .....
    .....

u+0033:
three:
    .....
    .....
    @@@@.
    ...@.
    ..@..
    .@.@.
    ...@.
    @..@.
    .@@..
    .....
    .....
    .....

u+0034:
four:
    .....
    .....
    @.@..
    @.@..
    @.@..
    @.@..
    @@@@.
    ..@..
    ..@..
    .....
    .....
    .....

u+0035:
five:
    .....
    .....
    @@@@.
    @....
    @@@..
    ...@.
    ...@.
    @..@.
    .@@..
    .....
    .....
    .....

u+0036:
six:
    .....
    .....
    .@@..
    @..@.
    @....
    @@@..
    @..@.
    @..@.
    .@@..
    .....
    .....
    .....

u+0037:
seven:
    .....
    .....
    @@@@.
    ...@.
    ...@.
    ..@..
    ..@..
    .@...
    .@...
    .....
    .....
    .....

u+0038:
eight:
    .....
    .....
    .@@..
    @..@.
    @..@.
    .@@..
    @..@.
    @..@.
    .@@..
    .....
    .....
    .....

u+0039:
nine:
    .....
    .....
    .@@..
    @..@.
    @..@.
    .@@@.
    ...@.
    @..@.
    .@@..
    .....
    .....
    .....

u+003a:
colon:
    .....
    .....
    .....
    ..@..
    .....
    .....
    ..@..
    .....
    .....
    .....
    .....
    .....

u+003b:
semicolon:
    .....
    ..@..
    .....
    .....
    ..@..
    ..@..
    .@...
    .....
    .....
    .....
    .....
    .....

u+003c:
less:
    .....
    .....
    ..@..
    .@...
    @....
    .@...
    ..@..
    .....
    .....
    .....
    .....
    .....

u+003d:
equal:
    .....
    .....
    .....
    @@@@.
    .....
    @@@@.
    .....
    .....
    .....
    .....
    .....
    .....

u+003e:
greater:
    .....
    .....
    .@...
    ..@..
    ...@.
    ..@..
    .@...
    .....
    .....
    .....
    .....
    .....

u+003f:
question:
    .....
    .....
    .@@..
    @..@.
    ...@.
    ..@..
    .@...
    .....
    .@...
    .....
    .....
    .....

u+0040:
at:
    .....
    .....
    .@@@.
    @..@.
    @.@@.
    @.@@.
    @....
    @..@.
    @@@..
    .....
    .....
    .....

u+0041:
A:
    .....
    .....
    .@@@.
    @..@.
    @..@.
    @@@@.
    @..@.
    @..@.
    @..@.
    .....
    .....
    .....

u+0042:
B:
    .....
    .....
    @@@..
    @..@.
    @..@.
    @@@..
    @..@.
    @..@.
    @@@..
    .....
    .....
    .....

u+0043:
C:
    .....
    .....
    .@@@.
    @..@.
    @....
    @....
    @....
    @...@
    .@@@.
    .....
    .....
    .....

u+0044:
D:
    .....
    .....
    @@@..
    @..@.
    @..@.
    @..@.
    @..@.
    @..@.
    @@@..
    .....
    .....
    .....

u+0045:
E:
    .....
    .....
    @@@@.
    @....
    @....
    @@@..
    @....
    @....
    @@@@.
    .....
    .....
    .....

u+0046:
F:
    .....
    .....
    @@@@.
    @....
    @....
    @@@..
    @....
    @....
    @....
    .....
    .....
    .....

u+0047:
G:
    .....
    .....
    .@@@.
    @..@.
    @....
    @.@@.
    @..@.
    @..@.
    @@@..
    .....
    .....
    .....

u+0048:
H:
    .....
    .....
    @..@.
    @..@.
    @..@.
    @@@@.
    @..@.
    @..@.
    @..@.
    .....
    .....
    .....

u+0049:
I:
    .....
    .....
    .@@@.
    ..@..
    ..@..
    ..@..
    ..@..
    ..@..
    .@@@.
    .....
    .....
    .....

u+004a:
J:
    .....
    .....
    .@@@.
    ...@.
    ...@.
    ...@.
    ...@.
    @..@.
    .@@@.
    .....
    .....
    .....

u+004b:
K:
    .....
    .....
    @..@.
    @.@..
    @@...
    @.@..
    @..@.
    @..@.
    @..@.
    .....
    .....
    .....

u+004c:
L:
    .....
    .....
    @....
    @....
    @....
    @....
    @....
    @@.@.
    @.@@.
    .....
    .....
    .....

u+004d:
M:
    .....
    .....
    @..@.
    @@@@.
    @@@@.
    @..@.
    @..@.
    @..@.
    @..@.
    .....
    .....
    .....

u+004e:
N:
    .....
    .....
    @..@.
    @@.@.
    @@.@.
    @.@@.
    @.@@.
    @..@.
    @..@.
    .....
    .....
    .....

u+004f:
O:
    .....
    .....
    .@@@.
    @..@.
    @..@.
    @..@.
    @..@.
    @..@.
    @@@..
    .....
    .....
    .....

u+0050:
P:
    .....
    .....
    @@@..
    @..@.
    @..@.
    @@@..
    @....
    @....
    @....
    .....
    .....
    .....

u+0051:
Q:
    .@@..
    @..@.
    @..@.
    @..@.
    @..@.
    @..@.
    .@@..
    ..@..
    ...@@
    .....
    .....
    .....

u+0052:
R:
    .....
    .....
    @@@..
    @..@.
    @..@.
    @@@..
    @.@..
    @.@.@
    @..@.
    .....
    .....
    .....

u+0053:
S:
    .....
    .....
    .@@@.
    @..@.
    @....
    .@@..
    ...@.
    ...@.
    @@@..
    .....
    .....
    .....

u+0054:
T:
    .....
    .....
    @@@@@
    ..@..
    ..@..
    ..@..
    ..@..
    ..@..
    ..@..
    .....
    .....
    .....

u+0055:
U:
    .....
    .....
    @..@.
    @..@.
    @..@.
    @..@.
    @..@.
    @..@.
    .@@@.
    .....
    .....
    .....

u+0056:
V:
    .....
    .....
    ....@
    @.@@.
    @..@.
    @..@.
    @..@.
    @.@..
    @@...
    @....
    .....
    .....

u+0057:
W:
    .....
    .....
    @..@.
    @..@.
    @..@.
    @..@.
    @@@@.
    @@@@.
    @..@.
    .....
    .....
    .....

u+0058:
X:
    .....
    .....
    @..@.
    @..@.
    @..@.
    .@@..
    @..@.
    @..@.
    @..@.
    .....
    .....
    .....

u+0059:
Y:
    .....
    .....
    @..@.
    @..@.
    @..@.
    .@@@.
    ...@.
    @..@.
    .@@@.
    .....
    .....
    .....

u+005a:
Z:
    .....
    .....
    @@@@.
    ...@.
    ..@..
    .@...
    @....
    @....
    @@@@.
    .....
    .....
    .....

u+005b:
bracketleft:
    .....
    .@@@.
    .@...
    .@...
    .@...
    .@...
    .@...
    .@...
    .@...
    .@@@.
    .....
    .....

u+005c:
backslash:
    .....
    @....
    @....
    .@...
    .@...
    ..@..
    ..@..
    ...@.
    ...@.
    .....
    .....
    .....

u+005d:
bracketright:
    .....
    .@@@.
    ...@.
    ...@.
    ...@.
    ...@.
    ...@.
    ...@.
    ...@.
    .@@@.
    .....
    .....

u+005e:
asciicircum:
    .....
    .....
    .....
    .....
    .....
    .....
    ..@..
    .@.@.
    @...@
    .....
    .....
    .....

u+005f:
underscore:
    .....
    @@@@.
    .....
    .....
    .....
    .....
    .....
    .....
    .....
    .....
    .....
    .....

u+0060:
grave:
    .....
    .....
    .....
    .....
    .....
    .....
    .@...
    ..@..
    ...@.
    .....
    .....
    .....

u+0061:
a:
    .....
    .....
    .@@@.
    @..@.
    @..@.
    @.@@@
    .@.@.
    .....
    .....
    .....
    .....
    .....

u+0062:
b:
    .....
    .....
    .@@..
    @.@..
    @.@..
    @@.@@
    @..@.
    @..@.
    .@@..
    .....
    .....
    .....

u+0063:
c:
    .....
    .....
    .@@@.
    @..@.
    @....
    @...@
    .@@@.
    .....
    .....
    .....
    .....
    .....

u+0064:
d:
    .....
    .....
    ...@.
    ...@.
    .@@@.
    @..@.
    @..@.
    @..@@
    .@@@.
    .....
    .....
    .....

u+0065:
e:
    .....
    .....
    .@@@.
    @..@.
    @@@..
    @...@
    .@@@.
    .....
    .....
    .....
    .....
    .....

u+0066:
f:
    ...@@
    ..@..
    ..@..
    .@@@.
    ..@..
    ..@..
    ..@..
    ..@..
    @@...
    .....
    .....
    .....

u+0067:
g:
    .@@@.
    @..@.
    @..@.
    @..@.
    .@@@.
    ...@.
    .@@..
    .....
    .....
    .....
    .....
    .....

u+0068:
h:
    .....
    .....
    @....
    @....
    @@@..
    @..@.
    @..@.
    @..@@
    @..@.
    .....
    .....
    .....

u+0069:
i:
    .....
    .....
    .@...
    .....
    .@...
    .@...
    @@...
    .@..@
    ..@@.
    .....
    .....
    .....

u+006a:
j:
    ..@..
    .....
    .@@..
    ..@..
    ..@@.
    .@@..
    @.@..
    @.@..
    @@...
    .....
    .....
    .....

u+006b:
k:
    .....
    .....
    @....
    @....
    @..@.
    @.@..
    @@...
    @.@..
    @..@.
    .....
    .....
    .....

u+006c:
l:
    .....
    .....
    ..@@.
    .@.@.
    .@.@.
    .@@..
    @@...
    .@..@
    ..@@.
    .....
    .....
    .....

u+006d:
m:
    .....
    .....
    @..@.
    @@@@.
    @..@.
    @..@.
    @..@.
    .....
    .....
    .....
    .....
    .....

u+006e:
n:
    .....
    .....
    @@@..
    @..@.
    @..@.
    @..@@
    @..@.
    .....
    .....
    .....
    .....
    .....

u+006f:
o:
    .....
    .....
    .@@..
    @..@@
    @..@.
    @..@.
    .@@..
    .....
    .....
    .....
    .....
    .....

u+0070:
p:
    @....
    @....
    @@@..
    @..@.
    @..@.
    @..@.
    @@@..
    @....
    @....
    .....
    .....
    .....

u+0071:
q:
    .@@@.
    @..@.
    @..@.
    @..@.
    .@@@.
    ...@@
    ...@.
    .....
    .....
    .....
    .....
    .....

u+0072:
r:
    .....
    .....
    @@.@.
    .@@@.
    @..@.
    ...@@
    ...@.
    .....
    .....
    .....
    .....
    .....

u+0073:
s:
    .....
    .....
    .@@@.
    @....
    .@@..
    ...@.
    @@@..
    .....
    .....
    .....
    .....
    .....

u+0074:
t:
    .....
    .....
    .@...
    .@...
    @@@@.
    .@...
    @@...
    .@..@
    ..@@.
    .....
    .....
    .....

u+0075:
u:
    .....
    .....
    @..@.
    @..@.
    @..@.
    @..@@
    .@@@.
    .....
    .....
    .....
    .....
    .....

u+0076:
v:
    .....
    .....
    ....@
    @.@@.
    @..@.
    @..@.
    @..@.
    .@@..
    .....
    .....
    .....
    .....

u+0077:
w:
    .....
    .....
    ....@
    @.@@.
    @..@.
    @..@.
    @@@@.
    @..@.
    .....
    .....
    .....
    .....

u+0078:
x:
    .....
    .....
    @..@.
    @..@.
    .@@..
    @..@.
    @..@.
    .....
    .....
    .....
    .....
    .....

u+0079:
y:
    @..@.
    @..@.
    @..@.
    @..@.
    .@@@.
    ...@.
    .@@..
    .....
    .....
    .....
    .....
    .....

u+007a:
z:
    @@@@.
    ...@.
    ..@..
    .@.@.
    ...@.
    @..@.
    .@@..
    .....
    .....
    .....
    .....
    .....

u+007b:
braceleft:
    .....
    ...@.
    ..@..
    ..@..
    ..@..
    @@...
    ..@..
    ..@..
    ..@..
    ...@.
    .....
    .....

u+007c:
bar:
    .....
    ..@..
    ..@..
    ..@..
    ..@..
    ..@..
    ..@..
    ..@..
    ..@..
    ..@..
    .....
    .....

u+007d:
braceright:
    .....
    .@...
    ..@..
    ..@..
    ..@..
    ...@@
    ..@..
    ..@..
    ..@..
    .@...
    .....
    .....

u+007e:
asciitilde:
    .....
    .....
    .....
    .....
    .@...
    @.@.@
    ...@.
    .....
    .....
    .....
    .....
    .....

u+00a0:
uni00A0:
    .....
    .....
    .....
    .....
    .....
    .....
    .....
    .....
    .....
    .....
    .....
    .....

u+00a1:
exclamdown:
    .....
    .....
    ..@..
    .....
    ..@..
    ..@..
    ..@..
    ..@..
    ..@..
    ..@..
    .....
    .....

u+00a2:
cent:
    .....
    .@...
    .@@..
    @@.@.
    @@...
    @@.@.
    .@@..
    .@...
    .....
    .....
    .....
    .....

u+00a3:
sterling:
    .....
    .....
    .@@..
    @..@.
    @....
    @@...
    @....
    @@.@.
    @.@@.
    .....
    .....
    .....

u+00a4:
currency:
    .....
    .....
    @...@
    .@@@.
    .@.@.
    .@@@.
    @...@
    .....
    .....
    .....
    .....
    .....

u+00a5:
yen:
    .....
    .....
    .@.@.
    .@.@.
    @@@@@
    .@.@.
    @@@@@
    ..@..
    ..@..
    .....
    .....
    .....

u+00a6:
brokenbar:
    .....
    .....
    ..@..
    ..@..
    ..@..
    ..@..
    .....
    .....
    ..@..
    ..@..
    ..@..
    ..@..

u+00a7:
section:
    .....
    .....
    .@@..
    @..@.
    @@@..
    @..@.
    .@@@.
    @..@.
    .@@..
    .....
    .....
    .....

u+00a8:
dieresis:
    .....
    .....
    .....
    .....
    .....
    .....
    .....
    .....
    @.@..
    .....
    .....
    .....

u+00a9:
copyright:
    .....
    .....
    ..@@.
    .@..@
    @.@@.
    @.@..
    @.@@.
    .@..@
    ..@@.
    .....
    .....
    .....

u+00aa:
ordfeminine:
    .....
    .....
    .....
    .....
    .@@@.
    @..@.
    @..@.
    @..@.
    .@@@.
    .....
    @@@@.
    .....

u+00ab:
guillemotleft:
    .....
    .....
    .....
    .@..@
    @..@.
    .@..@
    .....
    .....
    .....
    .....
    .....
    .....

u+00ac:
logicalnot:
    .....
    .....
    .....
    .....
    .@@@.
    ...@.
    .....
    .....
    .....
    .....
    .....
    .....

u+00ad:
uni00AD:
    .....
    .....
    .....
    .....
    @@@@.
    .....
    .....
    .....
    .....
    .....
    .....
    .....

u+00ae:
registered:
    .....
    .....
    ..@@.
    .@..@
    @.@@.
    @.@..
    @.@..
    .@..@
    ..@@.
    .....
    .....
    .....

u+00af:
macron:
    .....
    .....
    .....
    .....
    .....
    .....
    .....
    .....
    @@@@.
    .....
    .....
    .....

u+00b0:
degree:
    .....
    .....
    .....
    .....
    .....
    .....
    ..@..
    .@.@.
    ..@..
    .....
    .....
    .....

u+00b1:
plusminus:
    .....
    .....
    ..@..
    ..@..
    @@@@@
    ..@..
    @@@@@
    .....
    .....
    .....
    .....
    .....

u+00b2:
uni00B2:
    .....
    .....
    .....
    .....
    .....
    .@@..
    ...@.
    ..@..
    .@@@.
    .....
    .....
    .....

u+00b3:
uni00B3:
    .....
    .....
    .....
    .....
    .....
    .@@@.
    ..@..
    ...@.
    .@@..
    .....
    .....
    .....

u+00b4:
acute:
    .....
    .....
    .....
    .....
    .....
    .....
    ..@..
    .@...
    .....
    .....
    .....
    .....

u+00b5:
mu:
    @..@.
    @..@.
    @..@.
    @..@.
    @@@@@
    @....
    @....
    .....
    .....
    .....
    .....
    .....

u+00b6:
paragraph:
    .@@@.
    @@.@.
    @@.@.
    @@.@.
    .@.@.
    .@.@.
    .@.@.
    .@@..
    .....
    .....
    .....
    .....

u+00b7:
periodcentered:
    .....
    .....
    .....
    .....
    .....
    ..@..
    .....
    .....
    .....
    .....
    .....
    .....

u+00b8:
cedilla:
    ..@..
    .@@..
    .....
    .....
    .....
    .....
    .....
    .....
    .....
    .....
    .....
    .....

u+00b9:
uni00B9:
    .....
    .....
    .....
    .....
    .....
    .@@..
    ..@..
    ..@..
    .@@@.
    .....
    .....
    .....

u+00ba:
ordmasculine:
    .....
    .....
    .....
    .@...
    @.@..
    .@...
    .....
    @@@..
    .....
    .....
    .....
    .....

u+00bb:
guillemotright:
    .....
    .....
    .....
    @..@.
    .@..@
    @..@.
    .....
    .....
    .....
    .....
    .....
    .....

u+00bc:
onequarter:
    ..@..
    ..@..
    ..@..
    ..@..
    .....
    @@@@.
    .....
    .@...
    .@.@.
    .@@@.
    ...@.
    .....

u+00bd:
onehalf:
    ..@..
    ..@..
    ..@..
    ..@..
    .....
    @@@@.
    .....
    .@@@.
    ..@@.
    .@...
    .@@@.
    .....

u+00be:
threequarters:
    .@@@.
    ..@@.
    ...@.
    .@@@.
    .....
    @@@@.
    .....
    .@...
    .@.@.
    .@@@.
    ...@.
    .....

u+00bf:
questiondown:
    .....
    .....
    ..@..
    .....
    ..@..
    ..@..
    @@...
    @....
    .@@@.
    .....
    .....
    .....

u+00c0:
Agrave:
    .....
    .....
    .@...
    ..@..
    .@@..
    @..@.
    @..@.
    @@@@.
    @..@.
    @..@.
    @..@.
    .....

u+00c1:
Aacute:
    .....
    .....
    ..@..
    .@...
    .@@..
    @..@.
    @..@.
    @@@@.
    @..@.
    @..@.
    @..@.
    .....

u+00c2:
Acircumflex:
    .....
    .....
    ..@..
    .@.@.
    .@@..
    @..@.
    @..@.
    @@@@.
    @..@.
    @..@.
    @..@.
    .....

u+00c3:
Atilde:
    .....
    .....
    .@.@.
    @.@..
    .@@..
    @..@.
    @..@.
    @@@@.
    @..@.
    @..@.
    @..@.
    .....

u+00c4:
Adieresis:
    .....
    .....
    @..@.
    .....
    .@@..
    @..@.
    @..@.
    @@@@.
    @..@.
    @..@.
    @..@.
    .....

u+00c5:
Aring:
    .....
    .....
    .@...
    .....
    .@@..
    @..@.
    @..@.
    @@@@.
    @..@.
    @..@.
    @..@.
    .....

u+00c6:
AE:
    .....
    .....
    .@@@.
    @.@..
    @.@..
    @@@@.
    @.@..
    @.@..
    @.@@.
    .....
    .....
    .....

u+00c7:
Ccedilla:
    .@@..
    @..@.
    @....
    @....
    @....
    @..@.
    .@@..
    ..@..
    .@@..
    .....
    .....
    .....

u+00c8:
Egrave:
    .....
    .....
    .@...
    ..@..
    @@@@.
    @....
    @....
    @@...
    @....
    @....
    @@@@.
    .....

u+00c9:
Eacute:
    .....
    .....
    ..@..
    .@...
    @@@@.
    @....
    @....
    @@...
    @....
    @....
    @@@@.
    .....

u+00ca:
Ecircumflex:
    .....
    .....
    ..@..
    .@.@.
    .....
    @@@@.
    @....
    @@...
    @....
    @....
    @@@@.
    .....

u+00cb:
Edieresis:
    .....
    .....
    .@.@.
    .....
    @@@@.
    @....
    @....
    @@...
    @....
    @....
    @@@@.
    .....

u+00cc:
Igrave:
    .....
    .....
    @....
    .@...
    @@@..
    .@...
    .@...
    .@...
    .@...
    .@...
    @@@..
    .....

u+00cd:
Iacute:
    .....
    .....
    ..@..
    .@...
    @@@..
    .@...
    .@...
    .@...
    .@...
    .@...
    @@@..
    .....

u+00ce:
Icircumflex:
    .....
    .....
    .@...
    @.@..
    .....
    @@@..
    .@...
    .@...
    .@...
    .@...
    @@@..
    .....

u+00cf:
Idieresis:
    .....
    .....
    @.@..
    .....
    @@@..
    .@...
    .@...
    .@...
    .@...
    .@...
    @@@..
    .....

u+00d0:
Eth:
    .....
    .....
    .@@@.
    .@..@
    .@..@
    @@@.@
    .@..@
    .@..@
    .@@@.
    .....
    .....
    .....

u+00d1:
Ntilde:
    .....
    .....
    .@.@.
    @.@..
    @..@.
    @..@.
    @@.@.
    @@.@.
    @.@@.
    @.@@.
    @..@.
    .....

u+00d2:
Ograve:
    .....
    .....
    .@...
    ..@..
    .@@..
    @..@.
    @..@.
    @..@.
    @..@.
    @..@.
    .@@..
    .....

u+00d3:
Oacute:
    .....
    .....
    ..@..
    .@...
    .@@..
    @..@.
    @..@.
    @..@.
    @..@.
    @..@.
    .@@..
    .....

u+00d4:
Ocircumflex:
    .....
    .....
    ..@..
    .@.@.
    .....
    .@@..
    @..@.
    @..@.
    @..@.
    @..@.
    .@@..
    .....

u+00d5:
Otilde:
    .....
    .....
    .@.@.
    @.@..
    .@@..
    @..@.
    @..@.
    @..@.
    @..@.
    @..@.
    .@@..
    .....

u+00d6:
Odieresis:
    .....
    .....
    @..@.
    .....
    .@@..
    @..@.
    @..@.
    @..@.
    @..@.
    @..@.
    .@@..
    .....

u+00d7:
multiply:
    .....
    .....
    @...@
    .@.@.
    ..@..
    .@.@.
    @...@
    .....
    .....
    .....
    .....
    .....

u+00d8:
Oslash:
    .....
    .....
    .@@.@
    @..@@
    @.@@.
    @@.@.
    @..@.
    @..@.
    .@@..
    .....
    .....
    .....

u+00d9:
Ugrave:
    .....
    .....
    .@...
    ..@..
    @..@.
    @..@.
    @..@.
    @..@.
    @..@.
    @..@.
    .@@@.
    .....

u+00da:
Uacute:
    .....
    .....
    ..@..
    .@...
    @..@.
    @..@.
    @..@.
    @..@.
    @..@.
    @..@.
    .@@@.
    .....

u+00db:
Ucircumflex:
    .....
    .....
    ..@..
    .@.@.
    .....
    @..@.
    @..@.
    @..@.
    @..@.
    @..@.
    .@@@.
    .....

u+00dc:
Udieresis:
    .....
    .....
    @..@.
    .....
    @..@.
    @..@.
    @..@.
    @..@.
    @..@.
    @..@.
    .@@@.
    .....

u+00dd:
Yacute:
    .....
    .....
    ..@..
    .@...
    @..@.
    @..@.
    @..@.
    .@@@.
    ...@.
    @..@.
    .@@..
    .....

u+00de:
Thorn:
    .....
    .....
    @....
    @@@..
    @..@.
    @..@.
    @..@.
    @@@..
    @....
    .....
    .....
    .....

u+00df:
germandbls:
    .....
    @@...
    @.@..
    @.@..
    @@.@.
    @..@.
    @@@..
    @....
    .....
    .....
    .....
    .....

u+00e0:
agrave:
    .....
    .....
    .@...
    ..@..
    .....
    .@@@.
    @..@.
    @..@.
    @.@@.
    .@.@.
    .....
    .....

u+00e1:
aacute:
    .....
    .....
    ..@..
    .@...
    .....
    .@@@.
    @..@.
    @..@.
    @.@@.
    .@.@.
    .....
    .....

u+00e2:
acircumflex:
    .....
    .....
    ..@..
    .@.@.
    .....
    .@@@.
    @..@.
    @..@.
    @.@@.
    .@.@.
    .....
    .....

u+00e3:
atilde:
    .....
    .....
    ..@.@
    .@.@.
    .....
    .@@@.
    @..@.
    @..@.
    @.@@.
    .@.@.
    .....
    .....

u+00e4:
adieresis:
    .....
    .....
    @..@.
    .....
    .@@@.
    @..@.
    @..@.
    @.@@.
    .@.@.
    .....
    .....
    .....

u+00e5:
aring:
    .....
    .....
    ..@..
    .....
    .@@@.
    @..@.
    @..@.
    @.@@.
    .@.@.
    .....
    .....
    .....

u+00e6:
ae:
    .....
    .....
    .@@@.
    @.@..
    @@@@.
    @.@..
    @.@@.
    .....
    .....
    .....
    .....
    .....

u+00e7:
ccedilla:
    .@@..
    @..@.
    @....
    @..@.
    .@@..
    ..@..
    .@@..
    .....
    .....
    .....
    .....
    .....

u+00e8:
egrave:
    .....
    .....
    .@...
    ..@..
    .....
    .@@..
    @..@.
    @@@@.
    @....
    .@@@.
    .....
    .....

u+00e9:
eacute:
    .....
    .....
    ..@..
    .@...
    .....
    .@@..
    @..@.
    @@@@.
    @....
    .@@@.
    .....
    .....

u+00ea:
ecircumflex:
    .....
    .....
    ..@..
    .@.@.
    .....
    .@@..
    @..@.
    @@@@.
    @....
    .@@@.
    .....
    .....

u+00eb:
edieresis:
    .....
    .....
    @..@.
    .....
    .@@..
    @..@.
    @@@@.
    @....
    .@@@.
    .....
    .....
    .....

u+00ec:
igrave:
    .....
    .....
    @....
    .@...
    .....
    @@...
    .@...
    .@...
    .@...
    ..@@.
    .....
    .....

u+00ed:
iacute:
    .....
    .....
    ..@..
    .@...
    .....
    @@...
    .@...
    .@...
    .@...
    ..@@.
    .....
    .....

u+00ee:
icircumflex:
    .....
    .....
    .@...
    @.@..
    .....
    @@...
    .@...
    .@...
    .@...
    ..@@.
    .....
    .....

u+00ef:
idieresis:
    .....
    .....
    @.@..
    .....
    @@...
    .@...
    .@...
    .@...
    ..@@.
    .....
    .....
    .....

u+00f0:
eth:
    .....
    .....
    .@@..
    ...@.
    .@@@.
    @..@.
    @..@.
    @..@.
    .@@..
    .....
    .....
    .....

u+00f1:
ntilde:
    .....
    .....
    .@.@.
    @.@..
    .....
    @@@..
    @..@.
    @..@.
    @..@.
    @..@.
    .....
    .....

u+00f2:
ograve:
    .....
    .....
    .@...
    ..@..
    .....
    .@@..
    @..@.
    @..@.
    @..@.
    .@@..
    .....
    .....

u+00f3:
oacute:
    .....
    .....
    ..@..
    .@...
    .....
    .@@..
    @..@.
    @..@.
    @..@.
    .@@..
    .....
    .....

u+00f4:
ocircumflex:
    .....
    .....
    ..@..
    .@.@.
    .....
    .@@..
    @..@.
    @..@.
    @..@.
    .@@..
    .....
    .....

u+00f5:
otilde:
    .....
    .....
    .@.@.
    @.@..
    .....
    .@@..
    @..@.
    @..@.
    @..@.
    .@@..
    .....
    .....

u+00f6:
odieresis:
    .....
    .....
    @..@.
    .....
    .@@..
    @..@.
    @..@.
    @..@.
    .@@..
    .....
    .....
    .....

u+00f7:
divide:
    .....
    .....
    .@@..
    .....
    @@@@.
    .....
    .@@..
    .....
    .....
    .....
    .....
    .....

u+00f8:
oslash:
    .....
    .....
    ....@
    .@@@.
    @.@@.
    @@.@.
    @..@.
    .@@..
    .....
    .....
    .....
    .....

u+00f9:
ugrave:
    .....
    .....
    .@...
    ..@..
    .....
    @..@.
    @..@.
    @..@.
    @..@.
    .@@@.
    .....
    .....

u+00fa:
uacute:
    .....
    .....
    ..@..
    .@...
    .....
    @..@.
    @..@.
    @..@.
    @..@.
    .@@@.
    .....
    .....

u+00fb:
ucircumflex:
    .....
    .....
    ..@..
    .@.@.
    .....
    @..@.
    @..@.
    @..@.
    @..@.
    .@@@.
    .....
    .....

u+00fc:
udieresis:
    .....
    .....
    @..@.
    .....
    @..@.
    @..@.
    @..@.
    @..@.
    .@@@.
    .....
    .....
    .....

u+00fd:
yacute:
    ..@..
    .@...
    .....
    @..@.
    @..@.
    @..@.
    @..@.
    .@@@.
    @..@.
    .@@..
    .....
    .....

u+00fe:
thorn:
    @....
    @....
    @@@..
    @..@.
    @..@.
    @@@..
    @....
    @....
    .....
    .....
    .....
    .....

u+00ff:
ydieresis:
    @..@.
    .....
    @..@.
    @..@.
    @..@.
    @..@.
    .@@@.
    @..@.
    .@@..
    .....
    .....
    .....

u+0100:
Amacron:
    .....
    .....
    @@@@.
    .....
    .@@..
    @..@.
    @..@.
    @@@@.
    @..@.
    @..@.
    @..@.
    .....

u+0101:
amacron:
    ...........
    ...........
    .@@@.......
    ...........
    .@@@.......
    @..@.......
    @..@.......
    @.@@.......
    .@.@.......
    ...........
    ...........
    ...........

u+0102:
Abreve:
    ...........
    ...........
    @..@.......
    .@@........
    .@@........
    @..@.......
    @..@.......
    @@@@.......
    @..@.......
    @..@.......
    @..@.......
    ...........

u+0103:
abreve:
    .....
    .....
    @..@.
    .@@..
    .....
    .@@@.
    @..@.
    @..@.
    @.@@.
    .@.@.
    .....
    .....

u+0104:
Aogonek:
    .@@........
    @..@.......
    @..@.......
    @@@@.......
    @..@.......
    @..@.......
    @..@.......
    ..@........
    ..@@.......
    ...........
    ...........
    ...........

u+0105:
aogonek:
    .@@@.......
    @..@.......
    @..@.......
    @.@@.......
    .@.@.......
    .@.........
    .@@........
    ...........
    ...........
    ...........
    ...........
    ...........

u+0106:
Cacute:
    ...........
    ...........
    ...@.......
    ..@........
    .@@........
    @..@.......
    @..........
    @..........
    @..........
    @..@.......
    .@@........
    ...........

u+0107:
cacute:
    ...........
    ...........
    ..@........
    .@.........
    ...........
    .@@........
    @..@.......
    @..........
    @..@.......
    .@@........
    ...........
    ...........

u+0108:
Ccircumflex:
    ...........
    ...........
    ..@........
    .@.@.......
    .@@........
    @..@.......
    @..........
    @..........
    @..........
    @..@.......
    .@@........
    ...........

u+0109:
ccircumflex:
    ...........
    ...........
    ..@........
    .@.@.......
    ...........
    .@@........
    @..@.......
    @..........
    @..@.......
    .@@........
    ...........
    ...........

u+010a:
Cdotaccent:
    ...........
    ...........
    ..@........
    ...........
    .@@........
    @..@.......
    @..........
    @..........
    @..........
    @..@.......
    .@@........
    ...........

u+010b:
cdotaccent:
    ...........
    ...........
    ..@........
    ...........
    .@@........
    @..@.......
    @..........
    @..@.......
    .@@........
    ...........
    ...........
    ...........

u+010c:
Ccaron:
    .....
    .....
    .@.@.
    ..@..
    .@@..
    @..@.
    @....
    @....
    @....
    @..@.
    .@@..
    .....

u+010d:
ccaron:
    .....
    .....
    .@.@.
    ..@..
    .....
    .@@..
    @..@.
    @....
    @..@.
    .@@..
    .....
    .....

u+010e:
Dcaron:
    .....
    .....
    .@.@.
    ..@..
    @@@..
    @..@.
    @..@.
    @..@.
    @..@.
    @..@.
    @@@..
    .....

u+010f:
dcaron:
    .....
    .....
    ..@.@
    ..@.@
    .@@..
    @.@..
    @.@..
    @.@..
    .@@..
    .....
    .....
    .....

u+0110:
Dcroat:
    ...........
    ...........
    @@@........
    @..@.......
    @..@.......
    @@.@.......
    @..@.......
    @..@.......
    @@@........
    ...........
    ...........
    ...........

u+0111:
dcroat:
    ...........
    ...........
    ...@.......
    .@@@.......
    ...@.......
    .@@@.......
    @..@.......
    @..@.......
    @..@.......
    .@@@.......
    ...........
    ...........

u+0112:
Emacron:
    .....
    .....
    @@@@.
    .....
    @@@@.
    @....
    @....
    @@...
    @....
    @....
    @@@@.
    .....

u+0113:
emacron:
    .....
    .....
    @@@@.
    .....
    .@@..
    @..@.
    @@@@.
    @....
    .@@@.
    .....
    .....
    .....

u+0114:
Ebreve:
    .....
    .....
    @..@.
    .@@..
    @@@@.
    @....
    @....
    @@...
    @....
    @....
    @@@@.
    .....

u+0115:
ebreve:
    .....
    .....
    @..@.
    .@@..
    .....
    .@@..
    @..@.
    @@@@.
    @....
    .@@@.
    .....
    .....

u+0116:
Edotaccent:
    .....
    .....
    ..@..
    .....
    @@@@.
    @....
    @....
    @@...
    @....
    @....
    @@@@.
    .....

u+0117:
edotaccent:
    .....
    .....
    ..@..
    .....
    .@@..
    @..@.
    @@@@.
    @....
    .@@@.
    .....
    .....
    .....

u+0118:
Eogonek:
    @@@@.......
    @..........
    @..........
    @@.........
    @..........
    @..........
    @@@@.......
    ..@........
    ..@@.......
    ...........
    ...........
    ...........

u+0119:
eogonek:
    .@@........
    @..@.......
    @@@@.......
    @..........
    .@@@.......
    ..@........
    ..@@.......
    ...........
    ...........
    ...........
    ...........
    ...........

u+011a:
Ecaron:
    .....
    .....
    .@.@.
    ..@..
    @@@@.
    @....
    @....
    @@...
    @....
    @....
    @@@@.
    .....

u+011b:
ecaron:
    .....
    .....
    .@.@.
    ..@..
    .....
    .@@..
    @..@.
    @@@@.
    @....
    .@@@.
    .....
    .....

u+011c:
Gcircumflex:
    .....
    .....
    ..@..
    .@.@.
    .@@..
    @..@.
    @....
    @....
    @.@@.
    @..@.
    .@@..
    .....

u+011d:
gcircumflex:
    ..@........
    .@.@.......
    ...........
    .@@@.......
    @..@.......
    @..@.......
    @..@.......
    .@@@.......
    ...@.......
    .@@........
    ...........
    ...........

u+011e:
Gbreve:
    .....
    .....
    @..@.
    .@@..
    .@@..
    @..@.
    @....
    @....
    @.@@.
    @..@.
    .@@..
    .....

u+011f:
gbreve:
    @..@.......
    .@@........
    ...........
    .@@@.......
    @..@.......
    @..@.......
    @..@.......
    .@@@.......
    ...@.......
    .@@........
    ...........
    ...........

u+0120:
Gdotaccent:
    .....
    .....
    .@...
    .....
    .@@..
    @..@.
    @....
    @....
    @.@@.
    @..@.
    .@@..
    .....

u+0121:
gdotaccent:
    .@.........
    ...........
    .@@@.......
    @..@.......
    @..@.......
    @..@.......
    .@@@.......
    ...@.......
    .@@@.......
    ...........
    ...........
    ...........

u+0122:
uni0122:
    .@@..
    @..@.
    @....
    @....
    @.@@.
    @..@.
    .@@..
    ..@..
    .@@..
    .....
    .....
    .....

u+0123:
uni0123:
    ...@.......
    ..@........
    ...........
    .@@@.......
    @..@.......
    @..@.......
    @..@.......
    .@@@.......
    ...@.......
    .@@@.......
    ...........
    ...........

u+0124:
Hcircumflex:
    ...........
    ...........
    ..@........
    .@.@.......
    ...........
    @..@.......
    @..@.......
    @@@@.......
    @..@.......
    @..@.......
    @..@.......
    ...........

u+0125:
hcircumflex:
    .....
    .....
    .@...
    @.@..
    @....
    @....
    @@@..
    @..@.
    @..@.
    @..@.
    @..@.
    .....

u+0126:
Hbar:
    ...........
    ...........
    @..@.......
    @@@@.......
    @..@.......
    @@@@.......
    @..@.......
    @..@.......
    @..@.......
    ...........
    ...........
    ...........

u+0127:
hbar:
    .....
    .....
    @....
    @@@..
    @....
    @@@..
    @..@.
    @..@.
    @..@.
    @..@.
    .....
    .....

u+0128:
Itilde:
    .....
    .....
    .@.@.
    @.@..
    .....
    @@@..
    .@...
    .@...
    .@...
    .@...
    @@@..
    .....

u+0129:
itilde:
    .....
    .....
    .@.@.
    @.@..
    .....
    @@...
    .@...
    .@...
    .@...
    ..@@.
    .....
    .....

u+012a:
Imacron:
    .....
    .....
    @@@..
    .....
    @@@..
    .@...
    .@...
    .@...
    .@...
    .@...
    @@@..
    .....

u+012b:
imacron:
    .....
    .....
    @@@@.
    .....
    @@...
    .@...
    .@...
    .@...
    ..@@.
    .....
    .....
    .....

u+012c:
Ibreve:
    .....
    .....
    @..@.
    .@@..
    @@@..
    .@...
    .@...
    .@...
    .@...
    .@...
    @@@..
    .....

u+012d:
ibreve:
    .....
    .....
    @..@.
    .@@..
    .....
    @@...
    .@...
    .@...
    .@...
    ..@@.
    .....
    .....

u+012e:
Iogonek:
    @@@..
    .@...
    .@...
    .@...
    .@...
    .@...
    @@@..
    ..@..
    ..@@.
    .....
    .....
    .....

u+012f:
iogonek:
    .@...
    .....
    @@...
    .@...
    .@...
    .@...
    ..@@.
    @....
    @@...
    .....
    .....
    .....

u+0130:
Idotaccent:
    .....
    .....
    .@...
    .....
    @@@..
    .@...
    .@...
    .@...
    .@...
    .@...
    @@@..
    .....

u+0131:
dotlessi:
    .....
    .....
    @@...
    .@...
    .@...
    .@...
    ..@@.
    .....
    .....
    .....
    .....
    .....

u+0132:
IJ:
    ...........
    ...........
    @.@@.......
    @..@.......
    @..@.......
    @..@.......
    @..@.......
    @@.@.......
    @.@@.......
    ...........
    ...........
    ...........

u+0133:
ij:
    @.@........
    ...........
    @.@........
    @.@........
    @.@........
    @.@........
    @.@........
    @.@........
    .@.........
    ...........
    ...........
    ...........

u+0134:
Jcircumflex:
    .....
    .....
    ..@..
    .@.@.
    .....
    .@@@.
    ...@.
    ...@.
    ...@.
    @..@.
    .@@@.
    .....

u+0135:
jcircumflex:
    .@...
    @.@..
    .....
    .@@..
    ..@..
    ..@..
    ..@..
    ..@..
    ..@..
    .@...
    .....
    .....

u+0136:
uni0136:
    @..@.
    @.@..
    @@...
    @.@..
    @..@.
    @..@.
    @..@.
    ..@..
    .@@..
    .....
    .....
    .....

u+0137:
uni0137:
    @....
    @....
    @..@.
    @.@..
    @@...
    @.@..
    @..@.
    ..@..
    .@@..
    .....
    .....
    .....

u+0138:
kgreenlandic:
    ...........
    ...........
    @..@.......
    @..@.......
    @@@........
    @.@........
    @..@.......
    @..@.......
    ...........
    ...........
    ...........
    ...........

u+0139:
Lacute:
    .....
    .....
    ..@..
    .@...
    .....
    @....
    @....
    @....
    @....
    @....
    @@@@.
    .....

u+013a:
lacute:
    .....
    .....
    ..@..
    .@...
    @@...
    .@...
    .@...
    .@...
    .@...
    .@...
    ..@@.
    .....

u+013b:
uni013B:
    @....
    @....
    @....
    @....
    @....
    @....
    @@@@.
    ..@..
    .@@..
    .....
    .....
    .....

u+013c:
uni013C:
    @@...
    .@...
    .@...
    .@...
    .@...
    .@...
    ..@@.
    .@...
    @@...
    .....
    .....
    .....

u+013d:
Lcaron:
    .....
    .....
    @.@..
    @.@..
    @....
    @....
    @....
    @....
    @@@@.
    .....
    .....
    .....

u+013e:
lcaron:
    .....
    .....
    @@.@.
    .@.@.
    .@...
    .@...
    .@...
    .@...
    ..@@.
    .....
    .....
    .....

u+013f:
Ldot:
    ...........
    ...........
    @..........
    @..........
    @..........
    @..@.......
    @..........
    @..........
    @@@@.......
    ...........
    ...........
    ...........

u+0140:
ldot:
    ...........
    ...........
    @@.........
    .@.........
    .@.@.......
    .@.........
    .@.........
    ..@@.......
    ...........
    ...........
    ...........
    ...........

u+0141:
Lslash:
    ...........
    ...........
    @..........
    @..........
    @.@........
    @@.........
    @..........
    @..........
    @@@@.......
    ...........
    ...........
    ...........

u+0142:
lslash:
    ...........
    ...........
    @@.........
    .@.@.......
    .@@........
    .@.........
    @@.........
    .@.........
    ..@@.......
    ...........
    ...........
    ...........

u+0143:
Nacute:
    ...........
    ...........
    ...@.......
    ..@........
    @..@.......
    @..@.......
    @@.@.......
    @.@@.......
    @.@@.......
    @..@.......
    @..@.......
    ...........

u+0144:
nacute:
    ...........
    ...........
    ..@........
    .@.........
    ...........
    @@@........
    @..@.......
    @..@.......
    @..@.......
    @..@.......
    ...........
    ...........

u+0145:
uni0145:
    @..@.......
    @..@.......
    @@.@.......
    @.@@.......
    @.@@.......
    @..@.......
    @..@.......
    ..@........
    ..@@.......
    ...........
    ...........
    ...........

u+0146:
uni0146:
    @@@........
    @..@.......
    @..@.......
    @..@.......
    @..@.......
    ..@........
    ..@@.......
    ...........
    ...........
    ...........
    ...........
    ...........

u+0147:
Ncaron:
    .....
    .....
    .@.@.
    ..@..
    @..@.
    @@.@.
    @@.@.
    @.@@.
    @.@@.
    @..@.
    @..@.
    .....

u+0148:
ncaron:
    .....
    .....
    .@.@.
    ..@..
    .....
    @@@..
    @..@.
    @..@.
    @..@.
    @..@.
    .....
    .....

u+0149:
napostrophe:
    ...........
    ...........
    .@.........
    @..........
    ...........
    @@@........
    @..@.......
    @..@.......
    @..@.......
    @..@.......
    ...........
    ...........

u+014a:
Eng:
    @.@........
    @@.@.......
    @..@.......
    @..@.......
    @..@.......
    @..@.......
    ...@.......
    .@@........
    ...........
    ...........
    ...........
    ...........

u+014b:
eng:
    @@@........
    @..@.......
    @..@.......
    @..@.......
    @..@.......
    ...@.......
    ..@........
    ...........
    ...........
    ...........
    ...........
    ...........

u+014c:
Omacron:
    .....
    .....
    @@@@.
    .....
    .@@..
    @..@.
    @..@.
    @..@.
    @..@.
    @..@.
    .@@..
    .....

u+014d:
omacron:
    .....
    .....
    @@@@.
    .....
    .@@..
    @..@.
    @..@.
    @..@.
    .@@..
    .....
    .....
    .....

u+014e:
Obreve:
    .....
    .....
    @..@.
    .@@..
    .@@..
    @..@.
    @..@.
    @..@.
    @..@.
    @..@.
    .@@..
    .....

u+014f:
obreve:
    .....
    .....
    @..@.
    .@@..
    .....
    .@@..
    @..@.
    @..@.
    @..@.
    .@@..
    .....
    .....

u+0150:
Ohungarumlaut:
    .....
    .....
    .@.@.
    @.@..
    .@@..
    @..@.
    @..@.
    @..@.
    @..@.
    @..@.
    .@@..
    .....

u+0151:
ohungarumlaut:
    .....
    .....
    .@.@.
    @.@..
    .....
    .@@..
    @..@.
    @..@.
    @..@.
    .@@..
    .....
    .....

u+0152:
OE:
    ...........
    ...........
    .@@@@......
    @.@........
    @.@........
    @.@@@......
    @.@........
    @.@........
    .@@@@......
    ...........
    ...........
    ...........

u+0153:
oe:
    ...........
    ...........
    .@@@@......
    @.@.@......
    @.@@@......
    @.@........
    .@@@@......
    ...........
    ...........
    ...........
    ...........
    ...........

u+0154:
Racute:
    ...........
    ...........
    ..@........
    .@.........
    @@@........
    @..@.......
    @..@.......
    @@@........
    @.@........
    @.@........
    @..@.......
    ...........

u+0155:
racute:
    ...........
    ...........
    ..@........
    .@.........
    ...........
    @@@........
    @..@.......
    @..........
    @..........
    @..........
    ...........
    ...........

u+0156:
uni0156:
    @@@..
    @..@.
    @..@.
    @@@..
    @.@..
    @..@.
    @..@.
    .@...
    @....
    .....
    .....
    .....

u+0157:
uni0157:
    @@@..
    @..@.
    @....
    @....
    @....
    .@...
    @....
    .....
    .....
    .....
    .....
    .....

u+0158:
Rcaron:
    ...........
    ...........
    .@.@.......
    ..@........
    @@@........
    @..@.......
    @..@.......
    @@@........
    @.@........
    @.@........
    @..@.......
    ...........

u+0159:
rcaron:
    ...........
    ...........
    .@.@.......
    ..@........
    ...........
    ...........
    @@@........
    @..@.......
    @..........
    @..........
    @..........
    ...........

u+015a:
Sacute:
    ...........
    ...........
    ..@........
    .@.........
    .@@........
    @..@.......
    @..........
    .@@........
    ...@.......
    @..@.......
    .@@........
    ...........

u+015b:
sacute:
    ...........
    ...........
    ..@........
    .@.........
    ...........
    .@@@.......
    @..........
    .@@........
    ...@.......
    @@@........
    ...........
    ...........

u+015c:
Scircumflex:
    ...........
    ...........
    ..@........
    .@.@.......
    .@@........
    @..@.......
    @..........
    .@@........
    ...@.......
    @..@.......
    .@@........
    ...........

u+015d:
scircumflex:
    ...........
    ...........
    ..@........
    .@.@.......
    ...........
    .@@@.......
    @..........
    .@@........
    ...@.......
    @@@........
    ...........
    ...........

u+015e:
Scedilla:
    .@@........
    @..@.......
    @..........
    .@@........
    ...@.......
    @..@.......
    .@@........
    ..@........
    .@@........
    ...........
    ...........
    ...........

u+015f:
scedilla:
    .@@@.
    @....
    .@@..
    ...@.
    @@@..
    ..@..
    .@@..
    .....
    .....
    .....
    .....
    .....

u+0160:
Scaron:
    .....
    .....
    .@.@.
    ..@..
    .@@..
    @..@.
    @....
    .@@..
    ...@.
    @..@.
    .@@..
    .....

u+0161:
scaron:
    .....
    .....
    .@.@.
    ..@..
    .....
    .@@@.
    @....
    .@@..
    ...@.
    @@@..
    .....
    .....

u+0162:
uni0162:
    @@@........
    .@.........
    .@.........
    .@.........
    .@.........
    .@.........
    .@.........
    ..@........
    .@@........
    ...........
    ...........
    ...........

u+0163:
uni0163:
    .@.........
    .@.........
    @@@........
    .@.........
    .@.........
    .@.........
    ..@........
    .@.........
    @@.........
    ...........
    ...........
    ...........

u+0164:
Tcaron:
    .....
    .....
    @.@..
    .@...
    @@@..
    .@...
    .@...
    .@...
    .@...
    .@...
    .@...
    .....

u+0165:
tcaron:
    .....
    .....
    .@..@
    .@..@
    @@@..
    .@...
    .@...
    .@...
    ..@..
    .....
    .....
    .....

u+0166:
Tbar:
    ...........
    ...........
    @@@........
    .@.........
    .@.........
    .@.........
    @@@........
    .@.........
    .@.........
    ...........
    ...........
    ...........

u+0167:
tbar:
    ...........
    ...........
    .@.........
    .@.........
    @@@........
    .@.........
    @@@........
    .@.........
    ..@........
    ...........
    ...........
    ...........

u+0168:
Utilde:
    ...........
    ...........
    @.@........
    .@.@.......
    @..........
    @..@.......
    @..@.......
    @..@.......
    @..@.......
    @..@.......
    .@@@.......
    ...........

u+0169:
utilde:
    ...........
    ...........
    .@.@.......
    @.@........
    ...........
    @..@.......
    @..@.......
    @..@.......
    @..@.......
    .@@@.......
    ...........
    ...........

u+016a:
Umacron:
    ...........
    ...........
    @@@........
    ...........
    @..@.......
    @..@.......
    @..@.......
    @..@.......
    @..@.......
    @..@.......
    .@@@.......
    ...........

u+016b:
umacron:
    ...........
    ...........
    @@@........
    ...........
    @..@.......
    @..@.......
    @..@.......
    @..@.......
    .@@@.......
    ...........
    ...........
    ...........

u+016c:
Ubreve:
    ...........
    ...........
    @..@.......
    .@@........
    @..@.......
    @..@.......
    @..@.......
    @..@.......
    @..@.......
    @..@.......
    .@@@.......
    ...........

u+016d:
ubreve:
    ...........
    ...........
    @..@.......
    .@@........
    ...........
    @..@.......
    @..@.......
    @..@.......
    @..@.......
    .@@@.......
    ...........
    ...........

u+016e:
Uring:
    .....
    .....
    ..@..
    .@.@.
    @.@@.
    @..@.
    @..@.
    @..@.
    @..@.
    @..@.
    .@@@.
    .....

u+016f:
uring:
    .....
    .....
    ..@..
    .@.@.
    ..@..
    @..@.
    @..@.
    @..@.
    @..@.
    .@@@.
    .....
    .....

u+0170:
Uhungarumlaut:
    ...........
    ...........
    @..@.......
    ...........
    @..@.......
    @..@.......
    @..@.......
    @..@.......
    @..@.......
    @..@.......
    .@@@.......
    ...........

u+0171:
uhungarumlaut:
    ...........
    ...........
    .@.@.......
    @.@........
    ...........
    @..@.......
    @..@.......
    @..@.......
    @..@.......
    .@@@.......
    ...........
    ...........

u+0172:
Uogonek:
    @..@.......
    @..@.......
    @..@.......
    @..@.......
    @..@.......
    @..@.......
    .@@@.......
    ..@........
    ...@.......
    ...........
    ...........
    ...........

u+0173:
uogonek:
    @..@.......
    @..@.......
    @..@.......
    @..@.......
    @..@.......
    .@@@.......
    ...........
    ...@@......
    ...........
    ...........
    ...........
    ...........

u+0174:
Wcircumflex:
    ...........
    ...........
    ..@........
    .@.@.......
    ...........
    @..@.......
    @..@.......
    @..@.......
    @..@.......
    @@@@.......
    @..@.......
    ...........

u+0175:
wcircumflex:
    ...........
    ...........
    ..@........
    .@.@.......
    ...........
    @..@.......
    @..@.......
    @..@.......
    @@@@.......
    @..@.......
    ...........
    ...........

u+0176:
Ycircumflex:
    ...........
    ...........
    ..@........
    .@.@.......
    @..........
    @..@.......
    @..@.......
    .@@@.......
    ...@.......
    @..@.......
    .@@@.......
    ...........

u+0177:
ycircumflex:
    .@.........
    @.@........
    ...........
    @..@.......
    @..@.......
    @..@.......
    @..@.......
    .@@@.......
    @..@.......
    .@@........
    ...........
    ...........

u+0178:
Ydieresis:
    ...........
    ...........
    @..@.......
    ...........
    @..@.......
    @..@.......
    @..@.......
    .@@@.......
    ...@.......
    @..@.......
    .@@@.......
    ...........

u+0179:
Zacute:
    ...........
    ...........
    .@.........
    ...........
    @@@@.......
    ...@.......
    ...@.......
    ..@........
    .@.........
    @..........
    @@@@.......
    ...........

u+017a:
zacute:
    ...........
    ...........
    ..@........
    .@.........
    ...........
    @@@@.......
    ..@........
    .@.........
    @..........
    @@@@.......
    ...........
    ...........

u+017b:
Zdotaccent:
    ...........
    ...........
    .@.........
    ...........
    @@@@.......
    ...@.......
    ...@.......
    ..@........
    .@.........
    @..........
    @@@@.......
    ...........

u+017c:
zdotaccent:
    ...........
    ...........
    .@.........
    ...........
    @@@@.......
    ..@........
    .@.........
    @..........
    @@@@.......
    ...........
    ...........
    ...........

u+017d:
Zcaron:
    .....
    .....
    .@.@.
    ..@..
    @@@@.
    ...@.
    ...@.
    ..@..
    .@...
    @....
    @@@@.
    .....

u+017e:
zcaron:
    .....
    .....
    .@.@.
    ..@..
    .....
    .....
    @@@@.
    ..@..
    .@...
    @....
    @@@@.
    .....

u+017f:
longs:
    ...........
    ...........
    ..@@.......
    .@.........
    @@.........
    .@.........
    .@.........
    .@.........
    .@.........
    ...........
    ...........
    ...........

u+0180:
uni0180:
    .....
    .....
    @....
    @@@..
    @....
    @@@..
    @..@.
    @..@.
    @..@.
    @@@..
    .....
    .....

u+0181:
uni0181:
    ...........
    ...........
    .@@@.......
    @.@.@......
    ..@.@......
    ..@@.......
    ..@.@......
    ..@.@......
    ..@@.......
    ...........
    ...........
    ...........

u+0182:
uni0182:
    ...........
    ...........
    @@@@.......
    @..........
    @..........
    @@@........
    @..@.......
    @..@.......
    @@@........
    ...........
    ...........
    ...........

u+0183:
uni0183:
    ...........
    ...........
    @@@@.......
    @..........
    @@@........
    @..@.......
    @..@.......
    @..@.......
    @@@........
    ...........
    ...........
    ...........

u+0184:
uni0184:
    .....
    .....
    .@...
    @@...
    .@...
    .@@..
    .@.@.
    .@.@.
    .@@..
    .....
    .....
    .....

u+0185:
uni0185:
    .....
    .....
    .@...
    @@...
    .@@..
    .@.@.
    .@.@.
    .@.@.
    .@@..
    .....
    .....
    .....

u+0186:
uni0186:
    ...........
    ...........
    .@@........
    @..@.......
    ...@.......
    ...@.......
    ...@.......
    @..@.......
    .@@........
    ...........
    ...........
    ...........

u+0187:
uni0187:
    .....
    .....
    ...@@
    ..@..
    .@@..
    @..@.
    @....
    @....
    @....
    @..@.
    .@@..
    .....

u+0188:
uni0188:
    .....
    .....
    ...@@
    ..@..
    .@@..
    @..@.
    @....
    @..@.
    .@@..
    .....
    .....
    .....

u+0189:
uni0189:
    ...........
    ...........
    .@@........
    .@.@.......
    .@.@.......
    @@@@.......
    .@.@.......
    .@.@.......
    .@@........
    ...........
    ...........
    ...........

u+018a:
uni018A:
    .....
    .....
    .@@@.
    @.@.@
    ..@.@
    ..@.@
    ..@.@
    ..@.@
    ..@@.
    .....
    .....
    .....

u+018b:
uni018B:
    .....
    .....
    @@@@.
    ...@.
    ...@.
    ...@.
    .@@@.
    @..@.
    @..@.
    .@@@.
    .....
    .....

u+018c:
uni018C:
    .....
    .....
    @@@@.
    ...@.
    ...@.
    .@@@.
    @..@.
    @..@.
    @..@.
    .@@@.
    .....
    .....

u+018d:
uni018D:
    .@@........
    @..@.......
    @..@.......
    @..@.......
    .@@........
    ...@.......
    @@@........
    ...........
    ...........
    ...........
    ...........
    ...........

u+018e:
uni018E:
    ...........
    ...........
    @@@@.......
    ...@.......
    ...@.......
    ..@@.......
    ...@.......
    ...@.......
    @@@@.......
    ...........
    ...........
    ...........

u+018f:
uni018F:
    ...........
    ...........
    @@@........
    ...@.......
    @@@@.......
    @..@.......
    .@@........
    ...........
    ...........
    ...........
    ...........
    ...........

u+0190:
uni0190:
    ...........
    ...........
    .@@@.......
    @..........
    @..........
    .@@........
    @..........
    @..@.......
    .@@........
    ...........
    ...........
    ...........

u+0191:
uni0191:
    .@@@.......
    .@.........
    .@.........
    .@@........
    .@.........
    .@.........
    .@.........
    .@.........
    @..........
    ...........
    ...........
    ...........

u+0192:
florin:
    ..@........
    .@.@.......
    .@.........
    .@.........
    @@@........
    .@.........
    .@.........
    .@.........
    .@.........
    @..........
    ...........
    ...........

u+0193:
uni0193:
    ...........
    ...........
    ..@@.......
    .@.........
    .@@........
    @..@.......
    @..........
    @..........
    @.@@.......
    @..@.......
    .@@........
    ...........

u+0194:
uni0194:
    ...........
    ...........
    @..@.......
    .@.@.......
    ..@........
    .@@........
    @..@.......
    @..@.......
    .@@........
    ...........
    ...........
    ...........

u+0195:
uni0195:
    ...........
    ...........
    @..........
    @..@.......
    @@..@......
    @.@.@......
    @.@.@......
    @.@.@......
    @.@@.......
    ...........
    ...........
    ...........

u+0196:
uni0196:
    ...........
    ...........
    .@.........
    .@.........
    .@.........
    .@.........
    .@.........
    .@.........
    ..@........
    ...........
    ...........
    ...........

u+0197:
uni0197:
    ...........
    ...........
    .@.........
    .@.........
    .@.........
    .@.........
    .@.........
    @@@........
    .@.........
    ...........
    ...........
    ...........

u+0198:
uni0198:
    ...........
    ...........
    @..@.......
    @.@.@......
    @@.........
    @.@........
    @.@........
    @..@.......
    @..@.......
    ...........
    ...........
    ...........

u+0199:
uni0199:
    ...........
    ...........
    .@.........
    @.@........
    @..........
    @..@.......
    @.@........
    @@.........
    @.@........
    @..@.......
    ...........
    ...........

u+019a:
uni019A:
    ...........
    ...........
    .@@........
    ..@........
    ..@........
    .@@@.......
    ..@........
    ..@........
    ...@.......
    ...........
    ...........
    ...........

u+019b:
uni019B:
    ...........
    ...........
    .@.@.......
    @.@........
    ..@........
    ..@........
    .@@........
    @..@.......
    @..@.......
    ...........
    ...........
    ...........

u+019c:
uni019C:
    ...........
    ...........
    @..@.......
    @..@.......
    @..@.......
    @..@.......
    @..@.......
    @@@@.......
    @..@.......
    ...........
    ...........
    ...........

u+019d:
uni019D:
    @..@.......
    @..@.......
    @@.@.......
    @.@@.......
    @.@@.......
    @..@.......
    @..@.......
    ...@.......
    .@@........
    ...........
    ...........
    ...........

u+019e:
uni019E:
    @@@........
    @..@.......
    @..@.......
    @..@.......
    @..@.......
    ...@.......
    ...@.......
    ...........
    ...........
    ...........
    ...........
    ...........

u+019f:
uni019F:
    ...........
    ...........
    .@@........
    @..@.......
    @@@@.......
    @..@.......
    @..@.......
    .@@........
    ...........
    ...........
    ...........
    ...........

u+01a0:
Ohorn:
    ...........
    ...........
    ...@.......
    ...@.......
    .@@........
    @..@.......
    @..@.......
    @..@.......
    @..@.......
    @..@.......
    .@@........
    ...........

u+01a1:
ohorn:
    ...........
    ...........
    ...@.......
    ...@.......
    .@@........
    @..@.......
    @..@.......
    @..@.......
    .@@........
    ...........
    ...........
    ...........

u+01a2:
uni01A2:
    ...........
    ...........
    .@@@@......
    @.@.@......
    @.@.@......
    @.@.@......
    @.@.@......
    .@@.@......
    ...........
    ...........
    ...........
    ...........

u+01a3:
uni01A3:
    .@@@.......
    @.@.@......
    @.@.@......
    @.@.@......
    .@@.@......
    ....@......
    ....@......
    ...@.......
    ...........
    ...........
    ...........
    ...........

u+01a4:
uni01A4:
    ...........
    ...........
    .@@........
    @@.@.......
    .@.@.......
    .@@........
    .@.........
    .@.........
    .@.........
    ...........
    ...........
    ...........

u+01a5:
uni01A5:
    .@@........
    @..........
    @@@........
    @..@.......
    @..@.......
    @..@.......
    @@@........
    @..........
    @..........
    ...........
    ...........
    ...........

u+01a6:
uni01A6:
    @..........
    @@@........
    @..@.......
    @..@.......
    @@@........
    @..@.......
    @..@.......
    @..@.......
    ...@.......
    ....@......
    ...........
    ...........

u+01a7:
uni01A7:
    ...........
    ...........
    .@@........
    @..@.......
    ...@.......
    .@@........
    @..........
    @..@.......
    .@@........
    ...........
    ...........
    ...........

u+01a8:
uni01A8:
    ...........
    ...........
    @@@........
    ...@.......
    .@@........
    @..........
    .@@@.......
    ...........
    ...........
    ...........
    ...........
    ...........

u+01a9:
uni01A9:
    ...........
    ...........
    @@@@.......
    @..........
    .@.........
    ..@........
    .@.........
    @..........
    @@@@.......
    ...........
    ...........
    ...........

u+01aa:
uni01AA:
    ...........
    ...........
    .@.........
    @.@........
    ..@........
    .@@@.......
    ..@........
    ..@........
    ..@........
    ..@........
    ...@.......
    ...........

u+01ab:
uni01AB:
    .@.........
    .@.........
    @@@@.......
    .@.........
    .@.........
    .@.........
    ..@@.......
    ...@.......
    ..@........
    ...........
    ...........
    ...........

u+01ac:
uni01AC:
    ...........
    ...........
    .@@@.......
    @.@........
    ..@........
    ..@........
    ..@........
    ..@........
    ..@........
    ...........
    ...........
    ...........

u+01ad:
uni01AD:
    ...........
    ...........
    ..@........
    .@.........
    .@.........
    .@.........
    @@@@.......
    .@.........
    .@.........
    .@.........
    ..@@.......
    ...........

u+01ae:
uni01AE:
    @@@........
    .@.........
    .@.........
    .@.........
    .@.........
    .@.........
    .@.........
    .@.........
    ..@........
    ...........
    ...........
    ...........

u+01af:
Uhorn:
    ...........
    ...........
    ....@......
    ....@......
    @..@.......
    @..@.......
    @..@.......
    @..@.......
    @..@.......
    @..@.......
    .@@........
    ...........

u+01b0:
uhorn:
    ...........
    ...........
    ....@......
    ....@......
    @..@.......
    @..@.......
    @..@.......
    @..@.......
    .@@@.......
    ...........
    ...........
    ...........

u+01b1:
uni01B1:
    ...........
    ...........
    @@.@@......
    .@.@.......
    @...@......
    @...@......
    @...@......
    .@@@.......
    ...........
    ...........
    ...........
    ...........

u+01b2:
uni01B2:
    ...........
    ...........
    @.@........
    @..@.......
    @..@.......
    @..@.......
    @.@........
    @@.........
    ...........
    ...........
    ...........
    ...........

u+01b3:
uni01B3:
    ...........
    ...........
    ...@.......
    @.@.@......
    @.@........
    @.@........
    .@@........
    ..@........
    @.@........
    .@@........
    ...........
    ...........

u+01b4:
uni01B4:
    ...@.......
    @.@.@......
    @.@........
    @.@........
    @.@........
    .@@........
    @.@........
    .@@........
    ...........
    ...........
    ...........
    ...........

u+01b5:
uni01B5:
    .....
    .....
    @@@@.
    ...@.
    ..@..
    @@@@.
    .@...
    @....
    @@@@.
    .....
    .....
    .....

u+01b6:
uni01B6:
    ...........
    ...........
    @@@@.......
    ...@.......
    ..@........
    @@@@.......
    .@.........
    @@@@.......
    ...........
    ...........
    ...........
    ...........

u+01c7:
uni01C7:
    @.@@.......
    @..@.......
    @..@.......
    @..@.......
    @..@.......
    @..@.......
    @@.@.......
    ...@.......
    .@@........
    ...........
    ...........
    ...........

u+01c8:
uni01C8:
    @..@.......
    @..........
    @..@.......
    @..@.......
    @..@.......
    @..@.......
    @@.@.......
    ...@.......
    ..@........
    ...........
    ...........
    ...........

u+01c9:
uni01C9:
    @@.@.......
    .@.........
    .@.@.......
    .@.@.......
    .@.@.......
    .@.@.......
    .@.@.......
    ...@.......
    ..@........
    ...........
    ...........
    ...........

u+01ca:
uni01CA:
    @.@.@......
    @@@.@......
    @@@.@......
    @.@.@......
    @.@.@......
    @.@.@......
    @.@.@......
    ....@......
    ..@@.......
    ...........
    ...........
    ...........

u+01cb:
uni01CB:
    @.@.@......
    @@@........
    @@@.@......
    @.@.@......
    @.@.@......
    @.@.@......
    @.@.@......
    ....@......
    ...@.......
    ...........
    ...........
    ...........

u+01cc:
uni01CC:
    ....@......
    ...........
    @@..@......
    @.@.@......
    @.@.@......
    @.@.@......
    @.@.@......
    ....@......
    ...@.......
    ...........
    ...........
    ...........

u+01cd:
uni01CD:
    ...........
    ...........
    @.@........
    .@.........
    .@@........
    @..@.......
    @..@.......
    @@@@.......
    @..@.......
    @..@.......
    @..@.......
    ...........

u+01ce:
uni01CE:
    ...........
    ...........
    @.@........
    .@.........
    ...........
    .@@@.......
    @..@.......
    @..@.......
    @..@.......
    .@@@.......
    ...........
    ...........

u+01cf:
uni01CF:
    ...........
    ...........
    @.@........
    .@.........
    @@@........
    .@.........
    .@.........
    .@.........
    .@.........
    .@.........
    @@@........
    ...........

u+01d0:
uni01D0:
    ...........
    ...........
    @.@........
    .@.........
    ...........
    @@.........
    .@.........
    .@.........
    .@.........
    ..@@.......
    ...........
    ...........

u+01d1:
uni01D1:
    ...........
    ...........
    @.@........
    .@.........
    .@@........
    @..@.......
    @..@.......
    @..@.......
    @..@.......
    @..@.......
    .@@........
    ...........

u+01d2:
uni01D2:
    ...........
    ...........
    @.@........
    .@.........
    ...........
    .@@........
    @..@.......
    @..@.......
    @..@.......
    .@@........
    ...........
    ...........

u+01d3:
uni01D3:
    ...........
    ...........
    @.@........
    .@.........
    @..@.......
    @..@.......
    @..@.......
    @..@.......
    @..@.......
    @..@.......
    .@@........
    ...........

u+01d4:
uni01D4:
    ...........
    ...........
    @.@........
    .@.........
    ...........
    @..@.......
    @..@.......
    @..@.......
    @..@.......
    .@@@.......
    ...........
    ...........

u+020c:
uni020C:
    ...........
    ...........
    @.@........
    .@.@.......
    .@@........
    @..@.......
    @..@.......
    @..@.......
    @..@.......
    @..@.......
    .@@........
    ...........

u+020d:
uni020D:
    ...........
    ...........
    @.@........
    .@.@.......
    ...........
    .@@........
    @..@.......
    @..@.......
    @..@.......
    .@@........
    ...........
    ...........

u+020e:
uni020E:
    ...........
    ...........
    .@@........
    @..@.......
    .@@........
    @..@.......
    @..@.......
    @..@.......
    @..@.......
    @..@.......
    .@@........
    ...........

u+020f:
uni020F:
    ...........
    ...........
    .@@........
    @..@.......
    ...........
    .@@........
    @..@.......
    @..@.......
    @..@.......
    .@@........
    ...........
    ...........

u+0210:
uni0210:
    ...........
    ...........
    @.@........
    .@.@.......
    ...........
    @@@........
    @..@.......
    @@@........
    @..@.......
    @..@.......
    @..@.......
    ...........

u+0211:
uni0211:
    ...........
    ...........
    @.@........
    .@.@.......
    ...........
    @@@........
    @..@.......
    @..........
    @..........
    @..........
    ...........
    ...........

u+0212:
uni0212:
    ...........
    ...........
    .@@........
    @..@.......
    ...........
    @@@........
    @..@.......
    @@@........
    @.@........
    @.@........
    @..@.......
    ...........

u+0213:
uni0213:
    ...........
    ...........
    .@@........
    @..@.......
    ...........
    @@@........
    @..@.......
    @..........
    @..........
    @..........
    ...........
    ...........

u+0214:
uni0214:
    ...........
    ...........
    @.@........
    .@.@.......
    ...........
    @..@.......
    @..@.......
    @..@.......
    @..@.......
    @..@.......
    .@@@.......
    ...........

u+0215:
uni0215:
    ...........
    ...........
    @.@........
    .@.@.......
    ...........
    @..@.......
    @..@.......
    @..@.......
    @..@.......
    .@@@.......
    ...........
    ...........

u+0216:
uni0216:
    ...........
    ...........
    .@@........
    @..@.......
    ...........
    @..@.......
    @..@.......
    @..@.......
    @..@.......
    @..@.......
    .@@@.......
    ...........

u+0217:
uni0217:
    ...........
    ...........
    .@@........
    @..@.......
    ...........
    @..@.......
    @..@.......
    @..@.......
    @..@.......
    .@@@.......
    ...........
    ...........

u+0218:
uni0218:
    .@@..
    @..@.
    @....
    .@@..
    ...@.
    @..@.
    .@@..
    ..@..
    .@...
    .....
    .....
    .....

u+0219:
uni0219:
    .@@@.
    @....
    .@@..
    ...@.
    @@@..
    ..@..
    .@...
    .....
    .....
    .....
    .....
    .....

u+021a:
uni021A:
    @@@..
    .@...
    .@...
    .@...
    .@...
    .@...
    .@...
    .@...
    @....
    .....
    .....
    .....

u+021b:
uni021B:
    .@...
    .@...
    @@@@.
    .@...
    .@...
    .@...
    ..@@.
    ..@..
    .@...
    .....
    .....
    .....

u+0296:
uni0296:
    ...........
    ...........
    .@.........
    .@.........
    ..@........
    ...@.......
    ...@.......
    @..@.......
    .@@........
    ...........
    ...........
    ...........

u+0298:
uni0298:
    ...........
    ...........
    .@@@.......
    @...@......
    @...@......
    @.@.@......
    @.@.@......
    @...@......
    @...@......
    .@@@.......
    ...........
    ...........

u+02c7:
caron:
    .....
    .....
    .....
    .....
    .....
    .....
    .....
    .@.@.
    ..@..
    .....
    .....
    .....

u+02da:
ring:
    .....
    .....
    .....
    .....
    .....
    .....
    .....
    ..@..
    .@.@.
    ..@..
    .....
    .....

u+0364:
uni0364:
    ...........
    ...........
    .@@........
    @..@.......
    ...@.......
    ...@.......
    ..@........
    ...........
    ...........
    ...........
    ...........
    ...........

u+0391:
Alpha:
    .....
    .....
    .@@..
    @..@.
    @..@.
    @@@@.
    @..@.
    @..@.
    @..@.
    .....
    .....
    .....

u+0392:
Beta:
    .....
    .....
    @@@..
    @..@.
    @..@.
    @@@..
    @..@.
    @..@.
    @@@..
    .....
    .....
    .....

u+0393:
Gamma:
    .....
    .....
    @@@@.
    @....
    @....
    @....
    @....
    @....
    @....
    .....
    .....
    .....

u+0394:
uni0394:
    .....
    .....
    ..@..
    ..@..
    .@.@.
    .@.@.
    @...@
    @@@@@
    .....
    .....
    .....
    .....

u+0395:
Epsilon:
    .....
    .....
    @@@@.
    @....
    @....
    @@@..
    @....
    @....
    @@@@.
    .....
    .....
    .....

u+0396:
Zeta:
    .....
    .....
    @@@@.
    ...@.
    ...@.
    ..@..
    .@...
    @....
    @@@@.
    .....
    .....
    .....

u+0397:
Eta:
    .....
    .....
    @..@.
    @..@.
    @..@.
    @@@@.
    @..@.
    @..@.
    @..@.
    .....
    .....
    .....

u+0398:
Theta:
    .....
    .....
    .@@..
    @..@.
    @..@.
    @@@@.
    @..@.
    @..@.
    .@@..
    .....
    .....
    .....

u+0399:
Iota:
    .....
    .....
    @@@..
    .@...
    .@...
    .@...
    .@...
    .@...
    @@@..
    .....
    .....
    .....

u+039a:
Kappa:
    .....
    .....
    @..@.
    @.@..
    @@...
    @.@..
    @.@..
    @..@.
    @..@.
    .....
    .....
    .....

u+039b:
Lambda:
    .....
    .....
    ..@..
    ..@..
    .@.@.
    .@.@.
    @...@
    @...@
    @...@
    .....
    .....
    .....

u+039c:
Mu:
    .....
    .....
    @..@.
    @@@@.
    @..@.
    @..@.
    @..@.
    @..@.
    @..@.
    .....
    .....
    .....

u+039d:
Nu:
    .....
    .....
    @..@.
    @@.@.
    @@.@.
    @.@@.
    @.@@.
    @..@.
    @..@.
    .....
    .....
    .....

u+039e:
Xi:
    .....
    .....
    @@@@.
    @..@.
    .....
    .@@..
    .....
    @..@.
    @@@@.
    .....
    .....
    .....

u+039f:
Omicron:
    .....
    .....
    .@@..
    @..@.
    @..@.
    @..@.
    @..@.
    @..@.
    .@@..
    .....
    .....
    .....

u+03a0:
Pi:
    .....
    .....
    @@@@.
    @..@.
    @..@.
    @..@.
    @..@.
    @..@.
    @..@.
    .....
    .....
    .....

u+03a1:
Rho:
    .....
    .....
    @@@..
    @..@.
    @..@.
    @@@..
    @....
    @....
    @....
    .....
    .....
    .....

u+03a2:
uni03A2:
    @@@@@
    @@@@@
    @@@@@
    @@@@@
    @@@@@
    @@@@@
    @@@@@
    @@@@@
    @@@@@
    @@@@@
    @@@@@
    .....

u+03a3:
Sigma:
    .....
    .....
    @@@@.
    @....
    .@...
    ..@..
    .@...
    @....
    @@@@.
    .....
    .....
    .....

u+03a4:
Tau:
    .....
    .....
    @@@..
    .@...
    .@...
    .@...
    .@...
    .@...
    .@...
    .....
    .....
    .....

u+03a5:
Upsilon:
    .....
    .....
    @..@.
    @..@.
    @..@.
    .@@@.
    ...@.
    @..@.
    .@@..
    .....
    .....
    .....

u+03a6:
Phi:
    .....
    .....
    ..@..
    .@@@.
    @.@.@
    @.@.@
    @.@.@
    .@@@.
    ..@..
    .....
    .....
    .....

u+03a7:
Chi:
    .....
    .....
    @..@.
    @..@.
    .@@..
    @..@.
    @..@.
    @..@.
    @..@.
    .....
    .....
    .....

u+03a8:
Psi:
    .....
    .....
    @.@.@
    @.@.@
    @.@.@
    .@@@.
    ..@..
    ..@..
    ..@..
    .....
    .....
    .....

u+03a9:
uni03A9:
    .....
    .....
    .@@@.
    @...@
    @...@
    @...@
    @@.@@
    .@.@.
    @@.@@
    .....
    .....
    .....

u+03b1:
alpha:
    .....
    .....
    .@.@.
    @.@..
    @.@..
    .@.@.
    .....
    .....
    .....
    .....
    .....
    .....

u+03b2:
beta:
    @@...
    @.@..
    @.@..
    @@.@.
    @..@.
    @@@..
    @....
    @....
    .....
    .....
    .....
    .....

u+03b3:
gamma:
    @..@.
    .@@..
    ..@..
    .@.@.
    .@.@.
    ..@..
    .....
    .....
    .....
    .....
    .....
    .....

u+03b4:
delta:
    .....
    .....
    @@@@.
    @....
    .@@..
    @..@.
    @..@.
    .@@..
    .....
    .....
    .....
    .....

u+03b5:
epsilon:
    .....
    .....
    .@@..
    @..@.
    .@...
    @....
    @..@.
    .@@..
    .....
    .....
    .....
    .....

u+03b6:
zeta:
    @@@@.
    ..@..
    .@...
    @....
    @....
    .@@@.
    ...@.
    .....
    .....
    .....
    .....
    .....

u+03b7:
eta:
    @@@..
    @..@.
    @..@.
    @..@.
    @..@.
    ...@.
    ...@.
    .....
    .....
    .....
    .....
    .....

u+03b8:
theta:
    .....
    .....
    .@@..
    @..@.
    @@@@.
    @..@.
    .@@..
    .....
    .....
    .....
    .....
    .....

u+03b9:
iota:
    .....
    .....
    @@...
    .@...
    .@...
    .@...
    .@...
    ..@..
    .....
    .....
    .....
    .....

u+03ba:
kappa:
    .....
    .....
    @.@..
    @@...
    @.@..
    @.@..
    @.@..
    .....
    .....
    .....
    .....
    .....

u+03bb:
lambda:
    .....
    .....
    .@...
    @.@..
    ..@..
    ..@..
    .@.@.
    @..@.
    @..@.
    .....
    .....
    .....

u+03bc:
uni03BC:
    @..@.
    @..@.
    @..@.
    @..@.
    @@@@@
    @....
    @....
    .....
    .....
    .....
    .....
    .....

u+03bd:
nu:
    .....
    .....
    ..@..
    @..@.
    .@.@.
    .@.@.
    .@.@.
    ..@..
    .....
    .....
    .....
    .....

u+03be:
xi:
    @@@..
    @..@.
    .@...
    @....
    @....
    .@@@.
    ...@.
    .@@..
    .....
    .....
    .....
    .....

u+03bf:
omicron:
    .....
    .....
    .@@..
    @..@.
    @..@.
    @..@.
    .@@..
    .....
    .....
    .....
    .....
    .....

u+03c0:
pi:
    .....
    .....
    @@@@@
    .@.@.
    .@.@.
    .@.@.
    .@.@.
    .@.@.
    .....
    .....
    .....
    .....

u+03c1:
rho:
    ..@..
    .@.@.
    .@.@.
    .@@..
    .@...
    .@...
    .....
    .....
    .....
    .....
    .....
    .....

u+03c2:
sigma1:
    .@@..
    @..@.
    @..@.
    @....
    .@@..
    ...@.
    ..@..
    .....
    .....
    .....
    .....
    .....

u+03c3:
sigma:
    .....
    .....
    ...@.
    .@@..
    @..@.
    @..@.
    @..@.
    .@@..
    .....
    .....
    .....
    .....

u+03c4:
tau:
    .....
    .....
    @@@@.
    .@...
    .@...
    .@.@.
    ..@..
    .....
    .....
    .....
    .....
    .....

u+03c5:
upsilon:
    .....
    .....
    @..@.
    @..@.
    @..@.
    @..@.
    .@@@.
    .....
    .....
    .....
    .....
    .....

u+03c6:
phi:
    @.@@.
    @..@.
    @@@@.
    .@...
    .@...
    .....
    .....
    .....
    .....
    .....
    .....
    .....

u+03c7:
chi:
    .....
    @..@.
    .@@..
    .@...
    @.@..
    ...@.
    .....
    .....
    .....
    .....
    .....
    .....

u+03c8:
psi:
    ..@..
    @.@.@
    @.@.@
    .@@@.
    ..@..
    ..@..
    .....
    .....
    .....
    .....
    .....
    .....

u+03c9:
omega:
    .....
    .....
    .@.@.
    @...@
    @...@
    @.@.@
    .@.@.
    .....
    .....
    .....
    .....
    .....

u+0f3c:
uni0F3C:
    ...@.......
    ..@.@......
    ..@........
    ..@........
    ..@........
    ..@........
    ..@........
    ..@........
    .@.........
    @..........
    ...........
    ...........

u+0f3d:
uni0F3D:
    .@.........
    @.@........
    ..@........
    ..@........
    ..@........
    ..@........
    ..@........
    ..@........
    ...@.......
    ....@......
    ...........
    ...........

u+1e9e:
uni1E9E:
    .@@@.
    @..@.
    @..@.
    @.@..
    @..@.
    @..@.
    @@@@.
    @....
    @....
    .....
    .....
    .....

u+2010:
uni2010:
    .....
    .....
    .....
    .....
    @@@..
    .....
    .....
    .....
    .....
    .....
    .....
    .....

u+2011:
uni2011:
    .....
    .....
    .....
    .....
    @@@..
    .....
    .....
    .....
    .....
    .....
    .....
    .....

u+2012:
figuredash:
    .....
    .....
    .....
    .....
    @@@@.
    .....
    .....
    .....
    .....
    .....
    .....
    .....

u+2013:
endash:
    .....
    .....
    .....
    .....
    @@@@.
    .....
    .....
    .....
    .....
    .....
    .....
    .....

u+2014:
emdash:
    .....
    .....
    .....
    .....
    @@@@@
    .....
    .....
    .....
    .....
    .....
    .....
    .....

u+2015:
uni2015:
    .....
    .....
    .....
    .....
    @@@@@
    .....
    .....
    .....
    .....
    .....
    .....
    .....

u+2016:
uni2016:
    .....
    .....
    .@.@.
    .@.@.
    .@.@.
    .@.@.
    .@.@.
    .@.@.
    .@.@.
    .....
    .....
    .....

u+2017:
underscoredbl:
    .....
    @@@@.
    .....
    @@@@.
    .....
    .....
    .....
    .....
    .....
    .....
    .....
    .....

u+2018:
quoteleft:
    .....
    .....
    .....
    .....
    .....
    .....
    .@...
    .@...
    ..@..
    .....
    .....
    .....

u+2019:
quoteright:
    .....
    .....
    .....
    .....
    .....
    .....
    ..@..
    ..@..
    .@...
    .....
    .....
    .....

u+201a:
quotesinglbase:
    ...@.
    ...@.
    ..@..
    .....
    .....
    .....
    .....
    .....
    .....
    .....
    .....
    .....

u+201b:
quotereversed:
    .....
    .....
    .....
    .....
    .....
    .....
    .@...
    .@...
    ..@..
    .....
    .....
    .....

u+201c:
quotedblleft:
    .....
    .....
    .....
    .....
    .....
    .....
    @.@..
    @.@..
    .@.@.
    .....
    .....
    .....

u+201d:
quotedblright:
    .....
    .....
    .....
    .....
    .....
    .....
    .@.@.
    .@.@.
    @.@..
    .....
    .....
    .....

u+201e:
quotedblbase:
    .....
    .....
    .@.@.
    .@.@.
    @.@..
    .....
    .....
    .....
    .....
    .....
    .....
    .....

u+201f:
uni201F:
    .....
    .....
    .....
    .....
    .....
    .....
    .@.@.
    @.@..
    @.@..
    .....
    .....
    .....

u+2020:
dagger:
    .....
    .....
    .@...
    .@...
    @@@..
    .@...
    .@...
    .@...
    .....
    .....
    .....
    .....

u+2021:
daggerdbl:
    .....
    .....
    .@...
    .@...
    @@@..
    .@...
    @@@..
    .@...
    .@...
    .....
    .....
    .....

u+2022:
bullet:
    .....
    .....
    .....
    ..@..
    .@@@.
    ..@..
    .....
    .....
    .....
    .....
    .....
    .....

u+2023:
uni2023:
    .....
    .....
    .....
    @....
    @@...
    @....
    .....
    .....
    .....
    .....
    .....
    .....

u+2024:
onedotenleader:
    .....
    .....
    ..@..
    .....
    .....
    .....
    .....
    .....
    .....
    .....
    .....
    .....

u+2025:
twodotenleader:
    .....
    .....
    .@.@.
    .....
    .....
    .....
    .....
    .....
    .....
    .....
    .....
    .....

u+2026:
ellipsis:
    .....
    .....
    @.@.@
    .....
    .....
    .....
    .....
    .....
    .....
    .....
    .....
    .....

u+2027:
uni2027:
    .....
    .....
    .....
    .....
    ..@..
    .....
    .....
    .....
    .....
    .....
    .....
    .....

u+2032:
minute:
    .....
    .....
    .....
    .....
    .....
    .....
    .....
    ..@..
    .@...
    .....
    .....
    .....

u+2033:
second:
    .....
    .....
    .....
    .....
    .....
    .....
    .....
    ..@.@
    .@.@.
    .....
    .....
    .....

u+2034:
uni2034:
    .....
    .....
    .....
    .....
    .....
    .....
    .....
    .@.@.
    @.@.@
    .....
    .....
    .....

u+2035:
uni2035:
    .....
    .....
    .....
    .....
    .....
    .....
    .....
    .@...
    ..@..
    .....
    .....
    .....

u+2036:
uni2036:
    .....
    .....
    .....
    .....
    .....
    .....
    .....
    .@.@.
    ..@.@
    .....
    .....
    .....

u+2037:
uni2037:
    .....
    .....
    .....
    .....
    .....
    .....
    .....
    @.@.@
    .@.@.
    .....
    .....
    .....

u+2038:
uni2038:
    .....
    .....
    .@...
    @.@..
    .....
    .....
    .....
    .....
    .....
    .....
    .....
    .....

u+2039:
guilsinglleft:
    .....
    @....
    .@...
    ..@..
    ...@.
    ..@..
    .@...
    @....
    .....
    .....
    .....
    .....

u+203a:
guilsinglright:
    .....
    .....
    .....
    .....
    .....
    .@@..
    .@...
    ..@..
    .....
    .....
    .....
    .....

u+203b:
uni203B:
    ...........
    ...........
    ...........
    .@.@.......
    ..@........
    .@.@.......
    ...........
    ...........
    ...........
    ...........
    ...........
    ...........

u+203c:
exclamdbl:
    .....
    .....
    @.@..
    @.@..
    @.@..
    @.@..
    @.@..
    .....
    @.@..
    .....
    .....
    .....

u+203e:
uni203E:
    .....
    .....
    .....
    .....
    .....
    .....
    .....
    .....
    @@@@.
    .....
    .....
    .....

u+203f:
uni203F:
    .....
    @..@.
    .@@..
    .....
    .....
    .....
    .....
    .....
    .....
    .....
    .....
    .....

u+2040:
uni2040:
    .....
    .....
    .....
    .....
    .....
    .....
    .....
    .@@..
    @..@.
    .....
    .....
    .....

u+2041:
uni2041:
    .....
    .....
    ...@.
    ..@..
    .@...
    @.@..
    .....
    .....
    .....
    .....
    .....
    .....

u+2042:
uni2042:
    .....
    .....
    .....
    .....
    .@...
    .....
    @.@..
    .....
    .....
    .....
    .....
    .....

u+204f:
uni204F:
    .....
    .@...
    .....
    .@...
    ..@..
    .....
    .....
    .....
    .....
    .....
    .....
    .....

u+2050:
uni2050:
    .....
    .....
    .@@..
    @..@.
    .....
    .....
    @..@.
    .@@..
    .....
    .....
    .....
    .....

u+2051:
uni2051:
    .....
    .....
    @.@..
    .@...
    @.@..
    .....
    @.@..
    .@...
    @.@..
    .....
    .....
    .....

u+205c:
uni205C:
    ...........
    ...........
    @.@.@......
    ..@........
    @@@@@......
    ..@........
    @.@.@......
    ...........
    ...........
    ...........
    ...........
    ...........

u+20a8:
uni20A8:
    ...........
    ...........
    @@@@@......
    ...@.......
    @@@@@......
    ...@.......
    @@@........
    .@.........
    ..@........
    ...@.......
    ...........
    ...........

u+20aa:
uni20AA:
    ...........
    ...........
    @@@.@......
    @.@.@......
    @.@.@......
    @...@......
    @.@.@......
    @.@.@......
    @.@@@......
    ...........
    ...........
    ...........

u+20ac:
Euro:
    .....
    .....
    .@@@.
    @....
    @@@..
    @@@..
    @....
    .@@@.
    .....
    .....
    .....
    .....

u+2122:
trademark:
    .....
    .....
    .....
    .@@@.
    ..@..
    ..@..
    ..@..
    .@.@.
    .@@@.
    .@.@.
    .@.@.
    .....

u+2190:
arrowleft:
    .....
    .....
    ..@..
    .@...
    @@@@@
    .@...
    ..@..
    .....
    .....
    .....
    .....
    .....

u+2191:
arrowup:
    .....
    .....
    ..@..
    .@@@.
    @.@.@
    ..@..
    ..@..
    .....
    .....
    .....
    .....
    .....

u+2192:
arrowright:
    .....
    .....
    ..@..
    ...@.
    @@@@@
    ...@.
    ..@..
    .....
    .....
    .....
    .....
    .....

u+2193:
arrowdown:
    .....
    .....
    ..@..
    ..@..
    @.@.@
    .@@@.
    ..@..
    .....
    .....
    .....
    .....
    .....

u+2194:
arrowboth:
    .....
    .....
    .....
    .@.@.
    @@@@@
    .@.@.
    .....
    .....
    .....
    .....
    .....
    .....

u+2195:
arrowupdn:
    .....
    .@...
    @@@..
    .@...
    .@...
    @@@..
    .@...
    .....
    .....
    .....
    .....
    .....

u+2196:
uni2196:
    .....
    .....
    @@...
    @@...
    ..@..
    ...@.
    .....
    .....
    .....
    .....
    .....
    .....

u+2197:
uni2197:
    .....
    .....
    ..@@.
    ..@@.
    .@...
    @....
    .....
    .....
    .....
    .....
    .....
    .....

u+2198:
uni2198:
    .....
    .....
    @....
    .@...
    ..@@.
    ..@@.
    .....
    .....
    .....
    .....
    .....
    .....

u+2199:
uni2199:
    .....
    .....
    ...@.
    ..@..
    @@...
    @@...
    .....
    .....
    .....
    .....
    .....
    .....

u+21a4:
uni21A4:
    ...........
    ...........
    ...........
    ..@.@......
    .@..@......
    @@@@@......
    .@..@......
    ..@.@......
    ...........
    ...........
    ...........
    ...........

u+21a5:
uni21A5:
    ...........
    ...........
    ...........
    ..@........
    .@@@.......
    @.@.@......
    ..@........
    @@@@@......
    ...........
    ...........
    ...........
    ...........

u+21a6:
uni21A6:
    ...........
    ...........
    ...........
    @.@........
    @..@.......
    @@@@@......
    @..@.......
    @.@........
    ...........
    ...........
    ...........
    ...........

u+21a7:
uni21A7:
    ...........
    ...........
    ...........
    @@@@@......
    ..@........
    @.@.@......
    .@@@.......
    ..@........
    ...........
    ...........
    ...........
    ...........

u+21a9:
uni21A9:
    ...........
    ...........
    ...........
    .@..@......
    @@@@@......
    .@.........
    ...........
    ...........
    ...........
    ...........
    ...........
    ...........

u+21aa:
uni21AA:
    ...........
    ...........
    ...........
    @..@.......
    @@@@@......
    ...@.......
    ...........
    ...........
    ...........
    ...........
    ...........
    ...........

u+21b0:
uni21B0:
    ...........
    ...........
    .@.........
    @@@@.......
    .@.@.......
    ...@.......
    ...@.......
    ...@.......
    ...@.......
    ...........
    ...........
    ...........

u+21b1:
uni21B1:
    ...........
    ...........
    ..@........
    @@@@.......
    @.@........
    @..........
    @..........
    @..........
    @..........
    ...........
    ...........
    ...........

u+21b2:
uni21B2:
    ...........
    ...........
    ...@.......
    ...@.......
    ...@.......
    ...@.......
    .@.@.......
    @@@@.......
    .@.........
    ...........
    ...........
    ...........

u+21b3:
uni21B3:
    ...........
    ...........
    @..........
    @..........
    @..........
    @..........
    @.@........
    @@@@.......
    ..@........
    ...........
    ...........
    ...........

u+21b4:
uni21B4:
    ...........
    ...........
    @@@........
    ..@........
    ..@........
    ..@........
    .@@@.......
    ..@........
    ...........
    ...........
    ...........
    ...........

u+21b5:
carriagereturn:
    ...........
    ...........
    ....@......
    ....@......
    .@..@......
    @@@@@......
    .@.........
    ...........
    ...........
    ...........
    ...........
    ...........

u+21b6:
uni21B6:
    ...........
    ...........
    ..@@.......
    .@..@......
    .@..@......
    @@@.@......
    .@.........
    ...........
    ...........
    ...........
    ...........
    ...........

u+21b7:
uni21B7:
    ...........
    ...........
    .@@........
    @..@.......
    @..@.......
    @.@@@......
    @..@.......
    ...........
    ...........
    ...........
    ...........
    ...........

u+21b9:
uni21B9:
    ...........
    ...........
    ...........
    ...........
    ...........
    ...........
    ...........
    ...........
    ...........
    ...........
    ...........
    ...........

u+21ba:
uni21BA:
    ...........
    ...........
    ...@.......
    @..@@......
    @..@.......
    @..@.......
    .@@........
    ...........
    ...........
    ...........
    ...........
    ...........

u+21bb:
uni21BB:
    ...........
    ...........
    .@.........
    @@..@......
    .@..@......
    .@..@......
    ..@@.......
    ...........
    ...........
    ...........
    ...........
    ...........

u+21bc:
uni21BC:
    ...........
    ...........
    ...........
    ...........
    .@.........
    @@@@@......
    ...........
    ...........
    ...........
    ...........
    ...........
    ...........

u+21bd:
uni21BD:
    ...........
    ...........
    @@@@@......
    .@.........
    ...........
    ...........
    ...........
    ...........
    ...........
    ...........
    ...........
    ...........

u+21be:
uni21BE:
    ...........
    ...........
    ..@........
    ..@@.......
    ..@........
    ..@........
    ..@........
    ...........
    ...........
    ...........
    ...........
    ...........

u+21bf:
uni21BF:
    ...........
    ...........
    .@.........
    @@.........
    .@.........
    .@.........
    .@.........
    ...........
    ...........
    ...........
    ...........
    ...........

u+21c0:
uni21C0:
    ...........
    ...........
    ...........
    ...........
    ...@.......
    @@@@@......
    ...........
    ...........
    ...........
    ...........
    ...........
    ...........

u+21c1:
uni21C1:
    ...........
    ...........
    @@@@@......
    ...@.......
    ...........
    ...........
    ...........
    ...........
    ...........
    ...........
    ...........
    ...........

u+21c2:
uni21C2:
    ...........
    ...........
    ..@........
    ..@........
    ..@........
    ..@@.......
    ..@........
    ...........
    ...........
    ...........
    ...........
    ...........

u+21c3:
uni21C3:
    ...........
    ...........
    .@.........
    .@.........
    .@.........
    @@.........
    .@.........
    ...........
    ...........
    ...........
    ...........
    ...........

u+21c4:
uni21C4:
    ...........
    ...........
    ...@.......
    @@@@@......
    .@.@.......
    @@@@@......
    .@.........
    ...........
    ...........
    ...........
    ...........
    ...........

u+21c6:
uni21C6:
    ...........
    ...........
    .@.........
    @@@@@......
    .@.@.......
    @@@@@......
    ...@.......
    ...........
    ...........
    ...........
    ...........
    ...........

u+21c7:
uni21C7:
    ...........
    ...........
    .@.........
    @@@@@......
    .@.........
    @@@@@......
    .@.........
    ...........
    ...........
    ...........
    ...........
    ...........

u+21c8:
uni21C8:
    ...........
    ...........
    .@.@.......
    @@@@@......
    .@.@.......
    .@.@.......
    .@.@.......
    ...........
    ...........
    ...........
    ...........
    ...........

u+21c9:
uni21C9:
    ...........
    ...........
    ...@.......
    @@@@@......
    ...@.......
    @@@@@......
    ...@.......
    ...........
    ...........
    ...........
    ...........
    ...........

u+21ca:
uni21CA:
    ...........
    ...........
    .@.@.......
    .@.@.......
    .@.@.......
    @@@@@......
    .@.@.......
    ...........
    ...........
    ...........
    ...........
    ...........

u+21cb:
uni21CB:
    ...........
    ...........
    .@.........
    @@@@@......
    ...........
    @@@@@......
    ...@.......
    ...........
    ...........
    ...........
    ...........
    ...........

u+21d0:
arrowdblleft:
    .....
    .....
    ..@..
    .@@@@
    @....
    .@@@@
    ..@..
    .....
    .....
    .....
    .....
    .....

u+21d1:
arrowdblup:
    .....
    .....
    ..@..
    .@.@.
    @@.@@
    .@.@.
    .@.@.
    .@.@.
    .....
    .....
    .....
    .....

u+21d2:
arrowdblright:
    .....
    .....
    ..@..
    @@@@.
    ....@
    @@@@.
    ..@..
    .....
    .....
    .....
    .....
    .....

u+21d3:
arrowdbldown:
    .....
    .@.@.
    .@.@.
    .@.@.
    @@.@@
    .@.@.
    ..@..
    .....
    .....
    .....
    .....
    .....

u+2200:
universal:
    .....
    @..@.
    @..@.
    @..@.
    @@@@.
    @..@.
    @..@.
    .@@..
    .....
    .....
    .....
    .....

u+2201:
uni2201:
    .....
    .....
    .@@..
    @..@.
    @.@..
    @....
    @..@.
    @..@.
    .@@..
    .....
    .....
    .....

u+2202:
partialdiff:
    .....
    .....
    .@@..
    @..@.
    ...@.
    .@@@.
    @..@.
    @..@.
    .@@..
    .....
    .....
    .....

u+2203:
existential:
    .....
    .....
    @@@@.
    ...@.
    ...@.
    .@@@.
    ...@.
    ...@.
    @@@@.
    .....
    .....
    .....

u+2204:
uni2204:
    .....
    .....
    ...@.
    @@@@.
    ..@@.
    .@.@.
    .@@@.
    @..@.
    @..@.
    @@@@.
    .....
    .....

u+2205:
emptyset:
    .....
    ..@..
    ..@..
    .@@@.
    @.@.@
    @.@.@
    .@@@.
    ..@..
    ..@..
    .....
    .....
    .....

u+2206:
Delta:
    .....
    .....
    .....
    ..@..
    .@.@.
    @...@
    @@@@@
    .....
    .....
    .....
    .....
    .....

u+2207:
gradient:
    .....
    .....
    .....
    .....
    @@@@@
    @...@
    .@.@.
    ..@..
    .....
    .....
    .....
    .....

u+2208:
element:
    .....
    .....
    .....
    .@@@@
    @....
    @@@@.
    @....
    .@@@@
    .....
    .....
    .....
    .....

u+2209:
notelement:
    .....
    .....
    ....@
    .@@@.
    @.@..
    @@@..
    @....
    .@@@.
    .....
    .....
    .....
    .....

u+220a:
uni220A:
    .....
    .....
    .@@@.
    @....
    @@@..
    @....
    .@@@.
    .....
    .....
    .....
    .....
    .....

u+220b:
suchthat:
    .....
    .....
    @@@..
    ...@.
    .@@@.
    ...@.
    @@@..
    .....
    .....
    .....
    .....
    .....

u+220c:
uni220C:
    .....
    .....
    ....@
    @@@@.
    ..@@.
    .@@@.
    @..@.
    @@@..
    .....
    .....
    .....
    .....

u+220d:
uni220D:
    .....
    .....
    @@@..
    ...@.
    .@@@.
    ...@.
    @@@..
    .....
    .....
    .....
    .....
    .....

u+220e:
uni220E:
    .....
    .....
    .....
    .@@@.
    .@@@.
    .@@@.
    .....
    .....
    .....
    .....
    .....
    .....

u+220f:
product:
    .....
    .....
    @@@@.
    @..@.
    @..@.
    @..@.
    @..@.
    @..@.
    .....
    .....
    .....
    .....

u+2210:
uni2210:
    .....
    .....
    @..@.
    @..@.
    @..@.
    @..@.
    @..@.
    @@@@.
    .....
    .....
    .....
    .....

u+2211:
summation:
    .....
    @@@@.
    @..@.
    @....
    .@...
    ..@..
    .@...
    @....
    @..@.
    @@@@.
    .....
    .....

u+2212:
minus:
    .....
    .....
    .....
    .....
    @@@@.
    .....
    .....
    .....
    .....
    .....
    .....
    .....

u+2213:
uni2213:
    .....
    .....
    @@@@@
    ..@..
    ..@..
    @@@@@
    ..@..
    ..@..
    .....
    .....
    .....
    .....

u+2214:
uni2214:
    ...........
    ...........
    ..@........
    ...........
    ..@........
    @@@@@......
    ..@........
    ..@........
    ...........
    ...........
    ...........
    ...........

u+2217:
asteriskmath:
    ...........
    ...........
    .@.@.......
    ..@........
    @@@@@......
    ..@........
    .@.@.......
    ...........
    ...........
    ...........
    ...........
    ...........

u+2218:
uni2218:
    ...........
    ...........
    ...........
    ..@........
    .@.@.......
    ..@........
    ...........
    ...........
    ...........
    ...........
    ...........
    ...........

u+2219:
uni2219:
    ...........
    ...........
    ...........
    ..@........
    .@@@.......
    ..@........
    ...........
    ...........
    ...........
    ...........
    ...........
    ...........

u+221a:
radical:
    ...........
    ...........
    ....@......
    ....@......
    ...@.......
    ...@.......
    ..@........
    @.@........
    .@.........
    .@.........
    ...........
    ...........

u+221d:
proportional:
    ...........
    ...........
    .@.@.......
    @.@........
    @.@........
    .@.@.......
    ...........
    ...........
    ...........
    ...........
    ...........
    ...........

u+221e:
infinity:
    ...........
    ...........
    .@.@.......
    @.@.@......
    @.@.@......
    @.@.@......
    .@.@.......
    ...........
    ...........
    ...........
    ...........
    ...........

u+2227:
logicaland:
    ...........
    ...........
    ..@........
    ..@........
    .@.@.......
    .@.@.......
    @...@......
    @...@......
    ...........
    ...........
    ...........
    ...........

u+2228:
logicalor:
    ...........
    ...........
    @...@......
    @...@......
    .@.@.......
    .@.@.......
    ..@........
    ..@........
    ...........
    ...........
    ...........
    ...........

u+2229:
intersection:
    ...........
    ...........
    .@@........
    @..@.......
    @..@.......
    @..@.......
    @..@.......
    ...........
    ...........
    ...........
    ...........
    ...........

u+222a:
union:
    ...........
    ...........
    @..@.......
    @..@.......
    @..@.......
    @..@.......
    .@@........
    ...........
    ...........
    ...........
    ...........
    ...........

u+222b:
integral:
    ...@.......
    ..@.@......
    ..@........
    ..@........
    ..@........
    ..@........
    ..@........
    ..@........
    @.@........
    .@.........
    ...........
    ...........

u+2234:
therefore:
    ...........
    ...........
    ..@........
    ...........
    ...........
    ...........
    @...@......
    ...........
    ...........
    ...........
    ...........
    ...........

u+2235:
uni2235:
    ...........
    ...........
    @...@......
    ...........
    ...........
    ...........
    ...........
    ..@........
    ...........
    ...........
    ...........
    ...........

u+2236:
uni2236:
    ...........
    ...........
    ..@........
    ...........
    ...........
    ...........
    ..@........
    ...........
    ...........
    ...........
    ...........
    ...........

u+2237:
uni2237:
    ...........
    ...........
    .@..@......
    ...........
    ...........
    ...........
    .@..@......
    ...........
    ...........
    ...........
    ...........
    ...........

u+2243:
uni2243:
    ...........
    ...........
    ...........
    ...........
    .@.........
    @.@.@......
    ...@.......
    ...........
    @@@@@......
    ...........
    ...........
    ...........

u+2248:
approxequal:
    ...........
    ...........
    .@.........
    @.@.@......
    ...@.......
    .@.........
    @.@.@......
    ...@.......
    ...........
    ...........
    ...........
    ...........

u+2254:
uni2254:
    ...........
    ...........
    ...........
    @.@@@......
    ...........
    @.@@@......
    ...........
    ...........
    ...........
    ...........
    ...........
    ...........

u+2255:
uni2255:
    ...........
    ...........
    ...........
    @@@.@......
    ...........
    @@@.@......
    ...........
    ...........
    ...........
    ...........
    ...........
    ...........

u+2260:
notequal:
    .....
    ...@.
    ...@.
    @@@@@
    ..@..
    @@@@@
    .@...
    .@...
    .....
    .....
    .....
    .....

u+2261:
equivalence:
    ...........
    ...........
    @@@@@......
    ...........
    @@@@@......
    ...........
    @@@@@......
    ...........
    ...........
    ...........
    ...........
    ...........

u+2262:
uni2262:
    ...........
    ....@......
    @@@@@......
    ...@.......
    @@@@@......
    .@.........
    @@@@@......
    @..........
    ...........
    ...........
    ...........
    ...........

u+2264:
lessequal:
    ...........
    ...........
    ...@.......
    ..@........
    .@.........
    ..@........
    ...@.......
    ...........
    @@@@@......
    ...........
    ...........
    ...........

u+2265:
greaterequal:
    ...........
    ...........
    .@.........
    ..@........
    ...@.......
    ..@........
    .@.........
    ...........
    @@@@@......
    ...........
    ...........
    ...........

u+2282:
propersubset:
    ...........
    ...........
    ...........
    .@@@.......
    @..........
    @..........
    .@@@.......
    ...........
    ...........
    ...........
    ...........
    ...........

u+2283:
propersuperset:
    ...........
    ...........
    ...........
    @@@........
    ...@.......
    ...@.......
    @@@........
    ...........
    ...........
    ...........
    ...........
    ...........

u+2284:
notsubset:
    ...........
    ...........
    ...@.......
    .@@@.......
    @.@........
    @.@........
    .@@@.......
    .@.........
    ...........
    ...........
    ...........
    ...........

u+2285:
uni2285:
    ...........
    ...........
    @..........
    @@@........
    .@.@.......
    .@.@.......
    @@@........
    ..@........
    ...........
    ...........
    ...........
    ...........

u+2286:
reflexsubset:
    ...........
    ...........
    .@@@.......
    @..........
    @..........
    .@@@.......
    ...........
    @@@@.......
    ...........
    ...........
    ...........
    ...........

u+2287:
reflexsuperset:
    ...........
    ...........
    @@@........
    ...@.......
    ...@.......
    @@@........
    ...........
    @@@@.......
    ...........
    ...........
    ...........
    ...........

u+2295:
circleplus:
    ...........
    ...........
    .@@@.......
    @.@.@......
    @@@@@......
    @.@.@......
    .@@@.......
    ...........
    ...........
    ...........
    ...........
    ...........

u+2296:
uni2296:
    ...........
    ...........
    .@@@.......
    @...@......
    @@@@@......
    @...@......
    .@@@.......
    ...........
    ...........
    ...........
    ...........
    ...........

u+2299:
uni2299:
    ...........
    ...........
    .@@@.......
    @...@......
    @.@.@......
    @...@......
    .@@@.......
    ...........
    ...........
    ...........
    ...........
    ...........

u+229e:
uni229E:
    .....
    .....
    @@@@@
    @.@.@
    @@@@@
    @.@.@
    @@@@@
    .....
    .....
    .....
    .....
    .....

u+229f:
uni229F:
    .....
    .....
    @@@@@
    @...@
    @@@@@
    @...@
    @@@@@
    .....
    .....
    .....
    .....
    .....

u+22a0:
uni22A0:
    ...........
    ...........
    @.@.@......
    .@.@.......
    @.@.@......
    .@.@.......
    @.@.@......
    ...........
    ...........
    ...........
    ...........
    ...........

u+22a1:
uni22A1:
    ...........
    ...........
    @@@@@......
    @...@......
    @.@.@......
    @...@......
    @@@@@......
    ...........
    ...........
    ...........
    ...........
    ...........

u+22a2:
uni22A2:
    ...........
    ...........
    @..........
    @..........
    @@@@@......
    @..........
    @..........
    ...........
    ...........
    ...........
    ...........
    ...........

u+22a3:
uni22A3:
    ...........
    ...........
    ....@......
    ....@......
    @@@@@......
    ....@......
    ....@......
    ...........
    ...........
    ...........
    ...........
    ...........

u+22a4:
uni22A4:
    ...........
    ...........
    @@@@@......
    ..@........
    ..@........
    ..@........
    ..@........
    ...........
    ...........
    ...........
    ...........
    ...........

u+22a5:
perpendicular:
    ...........
    ...........
    ..@........
    ..@........
    ..@........
    ..@........
    @@@@@......
    ...........
    ...........
    ...........
    ...........
    ...........

u+22a6:
uni22A6:
    ...........
    ...........
    @..........
    @..........
    @@@........
    @..........
    @..........
    ...........
    ...........
    ...........
    ...........
    ...........

u+22a7:
uni22A7:
    ...........
    ...........
    @..........
    @@@........
    @..........
    @@@........
    @..........
    ...........
    ...........
    ...........
    ...........
    ...........

u+22a8:
uni22A8:
    ...........
    ...........
    @..........
    @@@@@......
    @..........
    @@@@@......
    @..........
    ...........
    ...........
    ...........
    ...........
    ...........

u+22a9:
uni22A9:
    ...........
    ...........
    @.@........
    @.@........
    @.@@@......
    @.@........
    @.@........
    ...........
    ...........
    ...........
    ...........
    ...........

u+22ab:
uni22AB:
    ...........
    ...........
    @.@........
    @.@@@......
    @.@........
    @.@@@......
    @.@........
    ...........
    ...........
    ...........
    ...........
    ...........

u+22c4:
uni22C4:
    ...........
    ...........
    ...........
    .@.........
    @.@........
    .@.........
    ...........
    ...........
    ...........
    ...........
    ...........
    ...........

u+22c5:
dotmath:
    ...........
    ...........
    ...........
    ...........
    .@.........
    ...........
    ...........
    ...........
    ...........
    ...........
    ...........
    ...........

u+22c6:
uni22C6:
    ...........
    ...........
    ...........
    @.@........
    .@.........
    @.@........
    ...........
    ...........
    ...........
    ...........
    ...........
    ...........

u+2325:
uni2325:
    ...........
    ...........
    @@.@@......
    .@.........
    ..@........
    ..@........
    ...@.......
    ...@@......
    ...........
    ...........
    ...........
    ...........

u+239b:
uni239B:
    ....@......
    ...@.......
    ..@........
    ..@........
    .@.........
    .@.........
    .@.........
    .@.........
    .@.........
    .@.........
    .@.........
    ...........

u+239c:
uni239C:
    .@.........
    .@.........
    .@.........
    .@.........
    .@.........
    .@.........
    .@.........
    .@.........
    .@.........
    .@.........
    .@.........
    ...........

u+239d:
uni239D:
    .@.........
    .@.........
    .@.........
    .@.........
    .@.........
    .@.........
    .@.........
    ..@........
    ..@........
    ...@.......
    ....@......
    ...........

u+239e:
uni239E:
    @..........
    .@.........
    ..@........
    ..@........
    ...@.......
    ...@.......
    ...@.......
    ...@.......
    ...@.......
    ...@.......
    ...@.......
    ...........

u+239f:
uni239F:
    ...@.......
    ...@.......
    ...@.......
    ...@.......
    ...@.......
    ...@.......
    ...@.......
    ...@.......
    ...@.......
    ...@.......
    ...@.......
    ...........

u+23a0:
uni23A0:
    ...@.......
    ...@.......
    ...@.......
    ...@.......
    ...@.......
    ...@.......
    ...@.......
    ..@........
    ..@........
    .@.........
    @..........
    ...........

u+23a1:
uni23A1:
    .@@@.......
    .@.........
    .@.........
    .@.........
    .@.........
    .@.........
    .@.........
    .@.........
    .@.........
    .@.........
    .@.........
    ...........

u+23a2:
uni23A2:
    .@.........
    .@.........
    .@.........
    .@.........
    .@.........
    .@.........
    .@.........
    .@.........
    .@.........
    .@.........
    .@.........
    ...........

u+23a3:
uni23A3:
    .@.........
    .@.........
    .@.........
    .@.........
    .@.........
    .@.........
    .@.........
    .@.........
    .@.........
    .@.........
    .@@@.......
    ...........

u+23a4:
uni23A4:
    .@@@.......
    ...@.......
    ...@.......
    ...@.......
    ...@.......
    ...@.......
    ...@.......
    ...@.......
    ...@.......
    ...@.......
    ...@.......
    ...........

u+23a5:
uni23A5:
    ...@.......
    ...@.......
    ...@.......
    ...@.......
    ...@.......
    ...@.......
    ...@.......
    ...@.......
    ...@.......
    ...@.......
    ...@.......
    ...........

u+23a6:
uni23A6:
    ...@.......
    ...@.......
    ...@.......
    ...@.......
    ...@.......
    ...@.......
    ...@.......
    ...@.......
    ...@.......
    ...@.......
    .@@@.......
    ...........

u+23a7:
uni23A7:
    ...@@......
    ..@........
    ..@........
    ..@........
    ..@........
    ..@........
    ..@........
    ..@........
    ..@........
    ..@........
    ..@........
    ...........

u+23a8:
uni23A8:
    ..@........
    ..@........
    ..@........
    ..@........
    @@.........
    ..@........
    ..@........
    ..@........
    ..@........
    ..@........
    ..@........
    ...........

u+23a9:
uni23A9:
    ..@........
    ..@........
    ..@........
    ..@........
    ..@........
    ..@........
    ..@........
    ..@........
    ..@........
    ..@........
    ...@@......
    ...........

u+23aa:
uni23AA:
    ..@........
    ..@........
    ..@........
    ..@........
    ..@........
    ..@........
    ..@........
    ..@........
    ..@........
    ..@........
    ..@........
    ...........

u+23ab:
uni23AB:
    @@.........
    ..@........
    ..@........
    ..@........
    ..@........
    ..@........
    ..@........
    ..@........
    ..@........
    ..@........
    ..@........
    ...........

u+23ac:
uni23AC:
    ..@........
    ..@........
    ..@........
    ..@........
    ...@@......
    ..@........
    ..@........
    ..@........
    ..@........
    ..@........
    ..@........
    ...........

u+23ad:
uni23AD:
    ..@........
    ..@........
    ..@........
    ..@........
    ..@........
    ..@........
    ..@........
    ..@........
    ..@........
    ..@........
    @@.........
    ...........

u+23ae:
uni23AE:
    ..@........
    ..@........
    ..@........
    ..@........
    ..@........
    ..@........
    ..@........
    ..@........
    ..@........
    ..@........
    ..@........
    ...........

u+23ba:
uni23BA:
    ...........
    ...........
    ...........
    ...........
    ...........
    ...........
    ...........
    ...........
    ...........
    .@@@@......
    ...........
    ...........

u+23bb:
uni23BB:
    ...........
    ...........
    ...........
    ...........
    ...........
    ...........
    ...........
    .@@@@......
    ...........
    ...........
    ...........
    ...........

u+23bc:
uni23BC:
    ...........
    ...........
    ...........
    ...........
    .@@@@......
    ...........
    ...........
    ...........
    ...........
    ...........
    ...........
    ...........

u+23bd:
uni23BD:
    ...........
    .@@@@......
    ...........
    ...........
    ...........
    ...........
    ...........
    ...........
    ...........
    ...........
    ...........
    ...........

u+23e9:
uni23E9:
    ...........
    ...........
    @.@........
    @@@@.......
    @@@@@......
    @@@@.......
    @.@........
    ...........
    ...........
    ...........
    ...........
    ...........

u+23ea:
uni23EA:
    ...........
    ...........
    ..@.@......
    .@@@@......
    @@@@@......
    .@@@@......
    ..@.@......
    ...........
    ...........
    ...........
    ...........
    ...........

u+23eb:
uni23EB:
    ...........
    ...........
    ..@........
    .@@@.......
    @@@@@......
    .@@@.......
    @@@@@......
    ...........
    ...........
    ...........
    ...........
    ...........

u+23ec:
uni23EC:
    ...........
    ...........
    @@@@@......
    .@@@.......
    @@@@@......
    .@@@.......
    ..@........
    ...........
    ...........
    ...........
    ...........
    ...........

u+23f4:
uni23F4:
    ...........
    ...........
    ..@........
    .@@........
    @@@........
    .@@........
    ..@........
    ...........
    ...........
    ...........
    ...........
    ...........

u+23f5:
uni23F5:
    ...........
    ...........
    @..........
    @@.........
    @@@........
    @@.........
    @..........
    ...........
    ...........
    ...........
    ...........
    ...........

u+23f6:
uni23F6:
    ...........
    ...........
    ..@........
    .@@@.......
    @@@@@......
    ...........
    ...........
    ...........
    ...........
    ...........
    ...........
    ...........

u+23f7:
uni23F7:
    ...........
    ...........
    @@@@@......
    .@@@.......
    ..@........
    ...........
    ...........
    ...........
    ...........
    ...........
    ...........
    ...........

u+23f8:
uni23F8:
    ...........
    ...........
    @.@........
    @.@........
    @.@........
    @.@........
    ...........
    ...........
    ...........
    ...........
    ...........
    ...........

u+23f9:
uni23F9:
    ...........
    ...........
    @@@@.......
    @@@@.......
    @@@@.......
    @@@@.......
    ...........
    ...........
    ...........
    ...........
    ...........
    ...........

u+23fa:
uni23FA:
    ...........
    ...........
    .@@........
    @@@@.......
    @@@@.......
    .@@........
    ...........
    ...........
    ...........
    ...........
    ...........
    ...........

u+23fb:
uni23FB:
    ...........
    ...........
    ..@........
    .@@@.......
    @.@.@......
    @.@.@......
    @...@......
    .@@@.......
    ...........
    ...........
    ...........
    ...........

u+2500:
SF100000:
    .....
    .....
    .....
    .....
    .....
    .....
    @@@@@
    .....
    .....
    .....
    .....
    .....

u+2501:
uni2501:
    ...........
    ...........
    ...........
    ...........
    ...........
    ...........
    @@@@@......
    @@@@@......
    ...........
    ...........
    ...........
    ...........

u+2502:
SF110000:
    ..@..
    ..@..
    ..@..
    ..@..
    ..@..
    ..@..
    ..@..
    ..@..
    ..@..
    ..@..
    ..@..
    .....

u+2503:
uni2503:
    .@@........
    .@@........
    .@@........
    .@@........
    .@@........
    .@@........
    .@@........
    .@@........
    .@@........
    .@@........
    .@@........
    ...........

u+2506:
uni2506:
    ..@........
    ..@........
    ..@........
    ...........
    ..@........
    ..@........
    ..@........
    ...........
    ..@........
    ..@........
    ..@........
    ...........

u+2507:
uni2507:
    .@@........
    .@@........
    .@@........
    ...........
    .@@........
    .@@........
    .@@........
    ...........
    .@@........
    .@@........
    .@@........
    ...........

u+250a:
uni250A:
    ..@........
    ..@........
    ...........
    ..@........
    ..@........
    ...........
    ..@........
    ..@........
    ...........
    ..@........
    ..@........
    ...........

u+250b:
uni250B:
    .@@........
    .@@........
    ...........
    .@@........
    .@@........
    ...........
    .@@........
    .@@........
    ...........
    .@@........
    .@@........
    ...........

u+250c:
SF010000:
    ..@@@
    ..@..
    ..@..
    ..@..
    ..@..
    ..@..
    ..@..
    .....
    .....
    .....
    .....
    .....

u+250d:
uni250D:
    ..@@@......
    ..@@@......
    ..@........
    ..@........
    ..@........
    ..@........
    ..@........
    ..@........
    ...........
    ...........
    ...........
    ...........

u+250e:
uni250E:
    .@@@@......
    .@@@.......
    .@@@.......
    .@@@.......
    .@@@.......
    .@@@.......
    .@@@.......
    ...........
    ...........
    ...........
    ...........
    ...........

u+250f:
uni250F:
    .@@@@......
    .@@@@......
    .@@@.......
    .@@@.......
    .@@@.......
    .@@@.......
    .@@@.......
    .@@@.......
    ...........
    ...........
    ...........
    ...........

u+2510:
SF030000:
    @@@........
    ..@........
    ..@........
    ..@........
    ..@........
    ..@........
    ..@........
    ...........
    ...........
    ...........
    ...........
    ...........

u+2511:
uni2511:
    @@@........
    @@@........
    ..@........
    ..@........
    ..@........
    ..@........
    ..@........
    ..@........
    ...........
    ...........
    ...........
    ...........

u+2512:
uni2512:
    @@@@.......
    .@@@.......
    .@@@.......
    .@@@.......
    .@@@.......
    .@@@.......
    .@@@.......
    ...........
    ...........
    ...........
    ...........
    ...........

u+2513:
uni2513:
    @@@@.......
    @@@@.......
    .@@@.......
    .@@@.......
    .@@@.......
    .@@@.......
    .@@@.......
    .@@@.......
    ...........
    ...........
    ...........
    ...........

u+2514:
SF020000:
    .....
    .....
    .....
    .....
    .....
    .....
    ..@..
    ..@..
    ..@..
    ..@..
    ..@@@
    .....

u+2515:
uni2515:
    ...........
    ...........
    ...........
    ...........
    ...........
    ...........
    ..@........
    ..@........
    ..@........
    ..@@@......
    ..@@@......
    ...........

u+2516:
uni2516:
    ...........
    ...........
    ...........
    ...........
    ...........
    ...........
    .@@@.......
    .@@@.......
    .@@@.......
    .@@@.......
    .@@@@......
    ...........

u+2517:
uni2517:
    ...........
    ...........
    ...........
    ...........
    ...........
    ...........
    .@@@.......
    .@@@.......
    .@@@.......
    .@@@@......
    .@@@@......
    ...........

u+2518:
SF040000:
    ...........
    ...........
    ...........
    ...........
    ...........
    ...........
    ..@........
    ..@........
    ..@........
    ..@........
    @@@........
    ...........

u+2519:
uni2519:
    ...........
    ...........
    ...........
    ...........
    ...........
    ...........
    ..@........
    ..@........
    ..@........
    @@@........
    @@@........
    ...........

u+251a:
uni251A:
    ...........
    ...........
    ...........
    ...........
    ...........
    ...........
    .@@@.......
    .@@@.......
    .@@@.......
    .@@@.......
    @@@@.......
    ...........

u+251b:
uni251B:
    ...........
    ...........
    ...........
    ...........
    ...........
    ...........
    .@@@.......
    .@@@.......
    .@@@.......
    @@@@.......
    @@@@.......
    ...........

u+251c:
SF080000:
    ..@........
    ..@........
    ..@........
    ..@........
    ..@@@......
    ..@........
    ..@........
    ..@........
    ..@........
    ..@........
    ..@........
    ...........

u+251d:
uni251D:
    ..@........
    ..@........
    ..@........
    ..@@@......
    ..@@@......
    ..@........
    ..@........
    ..@........
    ..@........
    ..@........
    ..@........
    ...........

u+2520:
uni2520:
    .@@@.......
    .@@@.......
    .@@@.......
    .@@@.......
    .@@@@......
    .@@@.......
    .@@@.......
    .@@@.......
    .@@@.......
    .@@@.......
    .@@@.......
    ...........

u+2523:
uni2523:
    .@@@.......
    .@@@.......
    .@@@.......
    .@@@@......
    .@@@@......
    .@@@.......
    .@@@.......
    .@@@.......
    .@@@.......
    .@@@.......
    .@@@.......
    ...........

u+2524:
SF090000:
    ..@........
    ..@........
    ..@........
    ..@........
    @@@........
    ..@........
    ..@........
    ..@........
    ..@........
    ..@........
    ..@........
    ...........

u+2525:
uni2525:
    ..@........
    ..@........
    ..@........
    @@@........
    @@@........
    ..@........
    ..@........
    ..@........
    ..@........
    ..@........
    ..@........
    ...........

u+2528:
uni2528:
    .@@@.......
    .@@@.......
    .@@@.......
    .@@@.......
    @@@@.......
    .@@@.......
    .@@@.......
    .@@@.......
    .@@@.......
    .@@@.......
    .@@@.......
    ...........

u+252b:
uni252B:
    .@@@.......
    .@@@.......
    .@@@.......
    @@@@.......
    @@@@.......
    .@@@.......
    .@@@.......
    .@@@.......
    .@@@.......
    .@@@.......
    .@@@.......
    ...........

u+252c:
SF060000:
    @@@@@......
    ..@........
    ..@........
    ..@........
    ..@........
    ..@........
    ..@........
    ...........
    ...........
    ...........
    ...........
    ...........

u+252f:
uni252F:
    @@@@@......
    @@@@@......
    ..@........
    ..@........
    ..@........
    ..@........
    ..@........
    ..@........
    ...........
    ...........
    ...........
    ...........

u+2530:
uni2530:
    @@@@@......
    .@@@.......
    .@@@.......
    .@@@.......
    .@@@.......
    .@@@.......
    .@@@.......
    ...........
    ...........
    ...........
    ...........
    ...........

u+2533:
uni2533:
    @@@@@......
    @@@@@......
    .@@@.......
    .@@@.......
    .@@@.......
    .@@@.......
    .@@@.......
    .@@@.......
    ...........
    ...........
    ...........
    ...........

u+2534:
SF070000:
    ...........
    ...........
    ...........
    ...........
    ...........
    ...........
    ..@........
    ..@........
    ..@........
    ..@........
    @@@@@......
    ...........

u+2537:
uni2537:
    ...........
    ...........
    ...........
    ...........
    ...........
    ...........
    ..@........
    ..@........
    ..@........
    @@@@@......
    @@@@@......
    ...........

u+2538:
uni2538:
    ...........
    ...........
    ...........
    ...........
    ...........
    ...........
    .@@@.......
    .@@@.......
    .@@@.......
    .@@@.......
    @@@@@......
    ...........

u+253b:
uni253B:
    ...........
    ...........
    ...........
    ...........
    ...........
    ...........
    .@@@.......
    .@@@.......
    .@@@.......
    @@@@@......
    @@@@@......
    ...........

u+253c:
SF050000:
    ..@........
    ..@........
    ..@........
    ..@........
    @@@@@......
    ..@........
    ..@........
    ..@........
    ..@........
    ..@........
    ..@........
    ...........

u+253f:
uni253F:
    ..@........
    ..@........
    ..@........
    ..@........
    @@@@@......
    @@@@@......
    ..@........
    ..@........
    ..@........
    ..@........
    ..@........
    ...........

u+2542:
uni2542:
    .@@@.......
    .@@@.......
    .@@@.......
    .@@@.......
    @@@@@......
    .@@@.......
    .@@@.......
    .@@@.......
    .@@@.......
    .@@@.......
    .@@@.......
    ...........

u+254b:
uni254B:
    .@@@.......
    .@@@.......
    .@@@.......
    @@@@@......
    @@@@@......
    .@@@.......
    .@@@.......
    .@@@.......
    .@@@.......
    .@@@.......
    .@@@.......
    ...........

u+2550:
SF430000:
    ...........
    ...........
    ...........
    ...........
    ...........
    @@@@@......
    ...........
    @@@@@......
    ...........
    ...........
    ...........
    ...........

u+2551:
SF240000:
    .@.@.......
    .@.@.......
    .@.@.......
    .@.@.......
    .@.@.......
    .@.@.......
    .@.@.......
    .@.@.......
    .@.@.......
    .@.@.......
    .@.@.......
    ...........

u+2552:
SF510000:
    ..@@@......
    ..@........
    ..@@@......
    ..@........
    ..@........
    ..@........
    ..@........
    ..@........
    ...........
    ...........
    ...........
    ...........

u+2553:
SF520000:
    .@@@@......
    .@.@.......
    .@.@.......
    .@.@.......
    .@.@.......
    .@.@.......
    .@.@.......
    ...........
    ...........
    ...........
    ...........
    ...........

u+2554:
SF390000:
    .@@@@......
    .@.........
    .@.@@......
    .@.@.......
    .@.@.......
    .@.@.......
    .@.@.......
    .@.@.......
    ...........
    ...........
    ...........
    ...........

u+2555:
SF220000:
    @@@........
    ..@........
    @@@........
    ..@........
    ..@........
    ..@........
    ..@........
    ..@........
    ...........
    ...........
    ...........
    ...........

u+2556:
SF210000:
    @@@@.......
    .@.@.......
    .@.@.......
    .@.@.......
    .@.@.......
    .@.@.......
    .@.@.......
    ...........
    ...........
    ...........
    ...........
    ...........

u+2557:
SF250000:
    @@@@.......
    ...@.......
    @@.@.......
    .@.@.......
    .@.@.......
    .@.@.......
    .@.@.......
    .@.@.......
    ...........
    ...........
    ...........
    ...........

u+2558:
SF500000:
    ...........
    ...........
    ...........
    ...........
    ...........
    ..@........
    ..@........
    ..@........
    ..@@@......
    ..@........
    ..@@@......
    ...........

u+2559:
SF490000:
    ...........
    ...........
    ...........
    ...........
    ...........
    ...........
    .@.@.......
    .@.@.......
    .@.@.......
    .@.@.......
    .@@@@......
    ...........

u+255a:
SF380000:
    ...........
    ...........
    ...........
    ...........
    ...........
    .@.@.......
    .@.@.......
    .@.@.......
    .@.@@......
    .@.........
    .@@@@......
    ...........

u+255b:
SF280000:
    ...........
    ...........
    ...........
    ...........
    ...........
    ..@........
    ..@........
    ..@........
    @@@........
    ..@........
    @@@........
    ...........

u+255c:
SF270000:
    ...........
    ...........
    ...........
    ...........
    ...........
    ...........
    .@.@.......
    .@.@.......
    .@.@.......
    .@.@.......
    @@@@.......
    ...........

u+255d:
SF260000:
    ...........
    ...........
    ...........
    ...........
    ...........
    .@.@.......
    .@.@.......
    .@.@.......
    @@.@.......
    ...@.......
    @@@@.......
    ...........

u+255e:
SF360000:
    ..@........
    ..@........
    ..@........
    ..@@@......
    ..@........
    ..@@@......
    ..@........
    ..@........
    ..@........
    ..@........
    ..@........
    ...........

u+255f:
SF370000:
    .@.@.......
    .@.@.......
    .@.@.......
    .@.@.......
    .@.@@......
    .@.@.......
    .@.@.......
    .@.@.......
    .@.@.......
    .@.@.......
    .@.@.......
    ...........

u+2560:
SF420000:
    .@.@.......
    .@.@.......
    .@.@.......
    .@.@@......
    .@.........
    .@.@@......
    .@.@.......
    .@.@.......
    .@.@.......
    .@.@.......
    .@.@.......
    ...........

u+2561:
SF190000:
    ..@........
    ..@........
    ..@........
    @@@........
    ..@........
    @@@........
    ..@........
    ..@........
    ..@........
    ..@........
    ..@........
    ...........

u+2562:
SF200000:
    .@.@.......
    .@.@.......
    .@.@.......
    .@.@.......
    @@.@.......
    .@.@.......
    .@.@.......
    .@.@.......
    .@.@.......
    .@.@.......
    .@.@.......
    ...........

u+2563:
SF230000:
    .@.@.......
    .@.@.......
    .@.@.......
    @@.@.......
    ...@.......
    @@.@.......
    .@.@.......
    .@.@.......
    .@.@.......
    .@.@.......
    .@.@.......
    ...........

u+2564:
SF470000:
    @@@@@......
    ...........
    @@@@@......
    ..@........
    ..@........
    ..@........
    ..@........
    ..@........
    ...........
    ...........
    ...........
    ...........

u+2565:
SF480000:
    @@@@@......
    .@.@.......
    .@.@.......
    .@.@.......
    .@.@.......
    .@.@.......
    .@.@.......
    ...........
    ...........
    ...........
    ...........
    ...........

u+2566:
SF410000:
    @@@@@......
    ...........
    @@.@@......
    .@.@.......
    .@.@.......
    .@.@.......
    .@.@.......
    .@.@.......
    ...........
    ...........
    ...........
    ...........

u+2567:
SF450000:
    ...........
    ...........
    ...........
    ...........
    ...........
    ..@........
    ..@........
    ..@........
    @@@@@......
    ...........
    @@@@@......
    ...........

u+2568:
SF460000:
    ...........
    ...........
    ...........
    ...........
    ...........
    ...........
    .@.@.......
    .@.@.......
    .@.@.......
    .@.@.......
    @@@@@......
    ...........

u+2569:
SF400000:
    ...........
    ...........
    ...........
    ...........
    ...........
    .@.@.......
    .@.@.......
    .@.@.......
    @@.@@......
    ...........
    @@@@@......
    ...........

u+256a:
SF540000:
    ..@........
    ..@........
    ..@........
    @@@@@......
    ..@........
    @@@@@......
    ..@........
    ..@........
    ..@........
    ..@........
    ..@........
    ...........

u+256b:
SF530000:
    .@.@.......
    .@.@.......
    .@.@.......
    .@.@.......
    @@@@@......
    .@.@.......
    .@.@.......
    .@.@.......
    .@.@.......
    .@.@.......
    .@.@.......
    ...........

u+256c:
SF440000:
    .@.@.......
    .@.@.......
    .@.@.......
    @@.@@......
    ...........
    @@.@@......
    .@.@.......
    .@.@.......
    .@.@.......
    .@.@.......
    .@.@.......
    ...........

u+256d:
uni256D:
    ...@@......
    ..@........
    ..@........
    ..@........
    ..@........
    ..@........
    ..@........
    ...........
    ...........
    ...........
    ...........
    ...........

u+256e:
uni256E:
    @@.........
    ..@........
    ..@........
    ..@........
    ..@........
    ..@........
    ..@........
    ...........
    ...........
    ...........
    ...........
    ...........

u+256f:
uni256F:
    ...........
    ...........
    ...........
    ...........
    ...........
    ...........
    ..@........
    ..@........
    ..@........
    ..@........
    @@.........
    ...........

u+2570:
uni2570:
    ...........
    ...........
    ...........
    ...........
    ...........
    ...........
    ..@........
    ..@........
    ..@........
    ..@........
    ...@@......
    ...........

u+2571:
uni2571:
    ....@......
    ....@......
    ....@......
    ...@.......
    ...@.......
    ..@........
    ..@........
    .@.........
    .@.........
    @..........
    @..........
    ...........

u+2572:
uni2572:
    @..........
    @..........
    @..........
    .@.........
    .@.........
    ..@........
    ..@........
    ...@.......
    ...@.......
    ....@......
    ....@......
    ...........

u+2573:
uni2573:
    @...@......
    @...@......
    @...@......
    .@.@.......
    .@.@.......
    ..@........
    ..@........
    .@.@.......
    .@.@.......
    @...@......
    @...@......
    ...........

u+257c:
uni257C:
    ...........
    ...........
    ...........
    ...........
    ...........
    ..@@@......
    @@@@@......
    ..@@@......
    ...........
    ...........
    ...........
    ...........

u+257e:
uni257E:
    ...........
    ...........
    ...........
    ...........
    ...........
    @@@........
    @@@@@......
    @@@........
    ...........
    ...........
    ...........
    ...........

u+2581:
uni2581:
    ...........
    ...........
    @@@@@......
    @@@@@......
    ...........
    ...........
    ...........
    ...........
    ...........
    ...........
    ...........
    ...........

u+2582:
uni2582:
    ...........
    ...........
    @@@@@......
    @@@@@......
    @@@@@......
    ...........
    ...........
    ...........
    ...........
    ...........
    ...........
    ...........

u+2583:
uni2583:
    ...........
    ...........
    @@@@@......
    @@@@@......
    @@@@@......
    @@@@@......
    ...........
    ...........
    ...........
    ...........
    ...........
    ...........

u+2584:
dnblock:
    ...........
    ...........
    @@@@@......
    @@@@@......
    @@@@@......
    @@@@@......
    @@@@@......
    ...........
    ...........
    ...........
    ...........
    ...........

u+2585:
uni2585:
    ...........
    ...........
    @@@@@......
    @@@@@......
    @@@@@......
    @@@@@......
    @@@@@......
    @@@@@......
    ...........
    ...........
    ...........
    ...........

u+2586:
uni2586:
    ...........
    ...........
    @@@@@......
    @@@@@......
    @@@@@......
    @@@@@......
    @@@@@......
    @@@@@......
    @@@@@......
    ...........
    ...........
    ...........

u+2587:
uni2587:
    ...........
    ...........
    @@@@@......
    @@@@@......
    @@@@@......
    @@@@@......
    @@@@@......
    @@@@@......
    @@@@@......
    @@@@@......
    ...........
    ...........

u+2588:
block:
    ...........
    ...........
    @@@@@......
    @@@@@......
    @@@@@......
    @@@@@......
    @@@@@......
    @@@@@......
    @@@@@......
    @@@@@......
    @@@@@......
    ...........

u+2589:
uni2589:
    ...........
    ...........
    @@@@.......
    @@@@.......
    @@@@.......
    @@@@.......
    @@@@.......
    @@@@.......
    @@@@.......
    @@@@.......
    @@@@.......
    ...........

u+258a:
uni258A:
    ...........
    ...........
    @@@@.......
    @@@@.......
    @@@@.......
    @@@@.......
    @@@@.......
    @@@@.......
    @@@@.......
    @@@@.......
    @@@@.......
    ...........

u+258f:
uni258F:
    ...........
    @..........
    @..........
    @..........
    @..........
    @..........
    @..........
    @..........
    @..........
    @..........
    @..........
    ...........

u+2591:
ltshade:
    ...........
    ...........
    @...@......
    ..@........
    @...@......
    ..@........
    @...@......
    ..@........
    @...@......
    ..@........
    @...@......
    ...........

u+2592:
shade:
    ...........
    ...........
    @.@.@......
    .@.@.......
    @.@.@......
    .@.@.......
    @.@.@......
    .@.@.......
    @.@.@......
    .@.@.......
    @.@.@......
    ...........

u+2593:
dkshade:
    ...........
    ...........
    @.@.@......
    @@@@@......
    @.@.@......
    @@@@@......
    @.@.@......
    @@@@@......
    @.@.@......
    @@@@@......
    @.@.@......
    ...........

u+25a1:
H22073:
    .....
    .....
    .....
    @@@@.
    @..@.
    @..@.
    @@@@.
    .....
    .....
    .....
    .....
    .....

u+25a2:
uni25A2:
    .....
    .....
    .....
    .@@..
    @..@.
    @..@.
    .@@..
    .....
    .....
    .....
    .....
    .....

u+25aa:
H18543:
    .....
    .....
    .....
    @@@@.
    @@@@.
    @@@@.
    @@@@.
    .....
    .....
    .....
    .....
    .....

u+25ab:
H18551:
    ...........
    ...........
    ...........
    @@@@.......
    @..@.......
    @..@.......
    @@@@.......
    ...........
    ...........
    ...........
    ...........
    ...........

u+25b2:
triagup:
    .....
    .....
    .....
    ..@..
    ..@..
    .@@@.
    .@@@.
    @@@@@
    .....
    .....
    .....
    .....

u+25b3:
uni25B3:
    .....
    .....
    .....
    ..@..
    ..@..
    .@.@.
    .@.@.
    @@@@@
    .....
    .....
    .....
    .....

u+25b4:
uni25B4:
    .....
    .....
    .....
    ..@..
    .@@@.
    @@@@@
    .....
    .....
    .....
    .....
    .....
    .....

u+25b5:
uni25B5:
    ...........
    ...........
    ...........
    ..@........
    .@.@.......
    @@@@@......
    ...........
    ...........
    ...........
    ...........
    ...........
    ...........

u+25b6:
uni25B6:
    ...........
    ...........
    @..........
    @@@........
    @@@@@......
    @@@........
    @..........
    ...........
    ...........
    ...........
    ...........
    ...........

u+25b7:
uni25B7:
    ...........
    ...........
    @..........
    @@@........
    @..@@......
    @@@........
    @..........
    ...........
    ...........
    ...........
    ...........
    ...........

u+25b8:
uni25B8:
    ...........
    ...........
    @..........
    @@.........
    @@@........
    @@.........
    @..........
    ...........
    ...........
    ...........
    ...........
    ...........

u+25b9:
uni25B9:
    ...........
    ...........
    @..........
    @@.........
    @.@........
    @@.........
    @..........
    ...........
    ...........
    ...........
    ...........
    ...........

u+25bc:
triagdn:
    ...........
    ...........
    ...........
    @@@@@......
    .@@@.......
    ..@........
    ...........
    ...........
    ...........
    ...........
    ...........
    ...........

u+25bd:
uni25BD:
    ...........
    ...........
    ...........
    @@@@@......
    .@.@.......
    ..@........
    ...........
    ...........
    ...........
    ...........
    ...........
    ...........

u+25be:
uni25BE:
    ...........
    ...........
    ...........
    @@@........
    .@.........
    ...........
    ...........
    ...........
    ...........
    ...........
    ...........
    ...........

u+25c0:
uni25C0:
    ...........
    ...........
    ....@......
    ..@@@......
    @@@@@......
    ..@@@......
    ....@......
    ...........
    ...........
    ...........
    ...........
    ...........

u+25c1:
uni25C1:
    ...........
    ...........
    ....@......
    ..@@@......
    @@..@......
    ..@@@......
    ....@......
    ...........
    ...........
    ...........
    ...........
    ...........

u+25c2:
uni25C2:
    ...........
    ...........
    ..@........
    .@@........
    @@@........
    .@@........
    ..@........
    ...........
    ...........
    ...........
    ...........
    ...........

u+25c3:
uni25C3:
    ...........
    ...........
    ..@........
    .@@........
    @.@........
    .@@........
    ..@........
    ...........
    ...........
    ...........
    ...........
    ...........

u+25c4:
triaglf:
    ...........
    ...........
    ...........
    ...........
    ...........
    ...........
    ...........
    ...........
    ...........
    ...........
    ...........
    ...........

u+25cb:
circle:
    ...........
    ...........
    ...........
    .@@@.......
    @...@......
    @...@......
    @...@......
    .@@@.......
    ...........
    ...........
    ...........
    ...........

u+25ce:
uni25CE:
    ...........
    ...........
    ...........
    .@@@.......
    @...@......
    @.@.@......
    @...@......
    .@@@.......
    ...........
    ...........
    ...........
    ...........

u+25cf:
H18533:
    ...........
    ...........
    ...........
    .@@@.......
    @@@@@......
    @@@@@......
    @@@@@......
    .@@@.......
    ...........
    ...........
    ...........
    ...........

u+25d0:
uni25D0:
    ...........
    ...........
    ...........
    .@@@.......
    @@@.@......
    @@@.@......
    @@@.@......
    .@@@.......
    ...........
    ...........
    ...........
    ...........

u+25d1:
uni25D1:
    ...........
    ...........
    ...........
    .@@@.......
    @.@@@......
    @.@@@......
    @.@@@......
    .@@@.......
    ...........
    ...........
    ...........
    ...........

u+25d2:
uni25D2:
    ...........
    ...........
    ...........
    .@@@.......
    @...@......
    @@@@@......
    @@@@@......
    .@@@.......
    ...........
    ...........
    ...........
    ...........

u+25d3:
uni25D3:
    ...........
    ...........
    ...........
    .@@@.......
    @@@@@......
    @@@@@......
    @...@......
    .@@@.......
    ...........
    ...........
    ...........
    ...........

u+25d4:
uni25D4:
    ...........
    ...........
    ...........
    .@@@.......
    @.@@@......
    @.@@@......
    @...@......
    .@@@.......
    ...........
    ...........
    ...........
    ...........

u+25d5:
uni25D5:
    ...........
    ...........
    ...........
    .@@@.......
    @..@@......
    @..@@......
    @@@@@......
    .@@@.......
    ...........
    ...........
    ...........
    ...........

u+25d6:
uni25D6:
    ...........
    ...........
    ...........
    .@.........
    @@.........
    @@.........
    @@.........
    .@.........
    ...........
    ...........
    ...........
    ...........

u+25d7:
uni25D7:
    ...........
    ...........
    ...........
    ...@.......
    ...@@......
    ...@@......
    ...@@......
    ...@.......
    ...........
    ...........
    ...........
    ...........

u+25e7:
uni25E7:
    ...........
    ...........
    @@@@@......
    @@@.@......
    @@@.@......
    @@@.@......
    @@@@@......
    ...........
    ...........
    ...........
    ...........
    ...........

u+25e8:
uni25E8:
    ...........
    ...........
    @@@@@......
    @.@@@......
    @.@@@......
    @.@@@......
    @@@@@......
    ...........
    ...........
    ...........
    ...........
    ...........

u+25e9:
uni25E9:
    ...........
    ...........
    @@@@@......
    @@@@@......
    @@@.@......
    @@..@......
    @@@@@......
    ...........
    ...........
    ...........
    ...........
    ...........

u+25ea:
uni25EA:
    ...........
    ...........
    @@@@@......
    @..@@......
    @.@@@......
    @@@@@......
    @@@@@......
    ...........
    ...........
    ...........
    ...........
    ...........

u+25eb:
uni25EB:
    ...........
    ...........
    @@@@@......
    @.@.@......
    @.@.@......
    @.@.@......
    @@@@@......
    ...........
    ...........
    ...........
    ...........
    ...........

u+25f0:
uni25F0:
    ...........
    ...........
    @@@@@......
    @.@.@......
    @@@.@......
    @...@......
    @@@@@......
    ...........
    ...........
    ...........
    ...........
    ...........

u+25f1:
uni25F1:
    ...........
    ...........
    @@@@@......
    @...@......
    @@@.@......
    @.@.@......
    @@@@@......
    ...........
    ...........
    ...........
    ...........
    ...........

u+25f2:
uni25F2:
    ...........
    ...........
    @@@@@......
    @...@......
    @.@@@......
    @.@.@......
    @@@@@......
    ...........
    ...........
    ...........
    ...........
    ...........

u+25f3:
uni25F3:
    ...........
    ...........
    @@@@@......
    @.@.@......
    @.@@@......
    @...@......
    @@@@@......
    ...........
    ...........
    ...........
    ...........
    ...........

u+2600:
uni2600:
    .....
    ..@..
    @.@.@
    .@@@.
    @@@@@
    .@@@.
    @.@.@
    ..@..
    .....
    .....
    .....
    .....

u+2601:
uni2601:
    .....
    .....
    .....
    .@@..
    .@@@.
    @@@@@
    @@@@@
    .....
    .....
    .....
    .....
    .....

u+2602:
uni2602:
    .....
    .@@@.
    @@@@@
    @@@@@
    ..@..
    ..@..
    @.@..
    @.@..
    .@...
    .....
    .....
    .....

u+2630:
uni2630:
    ...........
    ...........
    @@@@@......
    ...........
    ...........
    @@@@@......
    ...........
    ...........
    @@@@@......
    ...........
    ...........
    ...........

u+2631:
uni2631:
    ...........
    ...........
    @@.@@......
    ...........
    ...........
    @@@@@......
    ...........
    ...........
    @@@@@......
    ...........
    ...........
    ...........

u+2632:
uni2632:
    ...........
    ...........
    @@@@@......
    ...........
    ...........
    @@.@@......
    ...........
    ...........
    @@@@@......
    ...........
    ...........
    ...........

u+2633:
uni2633:
    ...........
    ...........
    @@.@@......
    ...........
    ...........
    @@.@@......
    ...........
    ...........
    @@@@@......
    ...........
    ...........
    ...........

u+2634:
uni2634:
    ...........
    ...........
    @@@@@......
    ...........
    ...........
    @@@@@......
    ...........
    ...........
    @@.@@......
    ...........
    ...........
    ...........

u+2635:
uni2635:
    ...........
    ...........
    @@.@@......
    ...........
    ...........
    @@@@@......
    ...........
    ...........
    @@.@@......
    ...........
    ...........
    ...........

u+2636:
uni2636:
    ...........
    ...........
    @@@@@......
    ...........
    ...........
    @@.@@......
    ...........
    ...........
    @@.@@......
    ...........
    ...........
    ...........

u+2637:
uni2637:
    ...........
    ...........
    @@.@@......
    ...........
    ...........
    @@.@@......
    ...........
    ...........
    @@.@@......
    ...........
    ...........
    ...........

u+2661:
uni2661:
    .....
    .....
    .@.@.
    @.@.@
    @...@
    .@.@.
    ..@..
    .....
    .....
    .....
    .....
    .....

u+2665:
heart:
    .....
    .....
    .@.@.
    @@@@@
    @@@@@
    .@@@.
    ..@..
    .....
    .....
    .....
    .....
    .....

u+2666:
diamond:
    ...........
    ...........
    ..@........
    .@@@.......
    @@@@@......
    .@@@.......
    ..@........
    ...........
    ...........
    ...........
    ...........
    ...........

u+2669:
uni2669:
    ...........
    ...........
    .@.........
    .@.........
    .@.........
    .@.........
    .@.........
    .@.........
    @@.........
    @@.........
    ...........
    ...........

u+266a:
musicalnote:
    ...........
    ...........
    .@.........
    .@@........
    .@.@.......
    .@.........
    .@.........
    .@.........
    @@.........
    @@.........
    ...........
    ...........

u+266b:
musicalnotedbl:
    ...........
    ...........
    .@@........
    .@.@@......
    .@..@......
    .@..@......
    .@..@......
    @@..@......
    @@.@@......
    ...@@......
    ...........
    ...........

u+266c:
uni266C:
    ...........
    ...........
    .@..@......
    .@@@@......
    .@..@......
    .@@@@......
    .@..@......
    .@..@......
    @@.@@......
    @@.@@......
    ...........
    ...........

u+267a:
uni267A:
    ...........
    ...........
    ..@........
    .@.@.......
    ...........
    @...@......
    @...@......
    .@.@.......
    ...........
    ...........
    ...........
    ...........

u+26aa:
uni26AA:
    ...........
    ...........
    ...........
    .@@........
    @..@.......
    @..@.......
    .@@........
    ...........
    ...........
    ...........
    ...........
    ...........

u+26ab:
uni26AB:
    ...........
    ...........
    ...........
    .@@........
    @@@@.......
    @@@@.......
    .@@........
    ...........
    ...........
    ...........
    ...........
    ...........

u+2713:
uni2713:
    .....
    .....
    ....@
    ....@
    ...@.
    @..@.
    .@@..
    ..@..
    .....
    .....
    .....
    .....

u+2714:
uni2714:
    .....
    .....
    ....@
    ....@
    ...@@
    @..@.
    @@@@.
    .@@..
    ..@..
    .....
    .....
    .....

u+2715:
uni2715:
    .....
    .....
    @...@
    .@.@.
    ..@..
    .@.@.
    @...@
    .....
    .....
    .....
    .....
    .....

u+2716:
uni2716:
    .....
    .....
    @@.@@
    @@@@@
    .@@@.
    @@@@@
    @@.@@
    .....
    .....
    .....
    .....
    .....

u+2717:
uni2717:
    ...........
    ...........
    ...@.......
    ...@.......
    @.@........
    .@@........
    .@@........
    .@@........
    @..@.......
    @..@.......
    ...........
    ...........

u+2718:
uni2718:
    ...........
    ...........
    ...@.......
    ...@.......
    @.@........
    @.@........
    .@@........
    .@@........
    @..@.......
    @..@.......
    ...........
    ...........

u+272e:
uni272E:
    .....
    .....
    ..@..
    ..@..
    @@@@@
    .@@@.
    .@@@.
    @...@
    .....
    .....
    .....
    .....

u+2744:
uni2744:
    .....
    .....
    ..@..
    @@.@@
    @.@.@
    .@@@.
    @.@.@
    @@.@@
    ..@..
    .....
    .....
    .....

u+276e:
uni276E:
    ...........
    ...........
    ...@@......
    ..@@.......
    .@@........
    @@.........
    .@@........
    ..@@.......
    ...@@......
    ...........
    ...........
    ...........

u+276f:
uni276F:
    ...........
    ...........
    @@.........
    .@@........
    ..@@.......
    ...@@......
    ..@@.......
    .@@........
    @@.........
    ...........
    ...........
    ...........

u+2770:
uni2770:
    ...........
    ...........
    ..@@@......
    .@@@.......
    @@@........
    @@.........
    @@@........
    .@@@.......
    ..@@@......
    ...........
    ...........
    ...........

u+2771:
uni2771:
    ...........
    ...........
    @@@........
    .@@@.......
    ..@@@......
    ...@@......
    ..@@@......
    .@@@.......
    @@@........
    ...........
    ...........
    ...........

u+27c2:
uni27C2:
    .....
    .....
    .@...
    .@...
    .@...
    .@...
    @@@..
    .....
    .....
    .....
    .....
    .....

u+27c3:
uni27C3:
    .....
    .....
    .@@@.
    @....
    @.@..
    @....
    .@@@.
    .....
    .....
    .....
    .....
    .....

u+27c4:
uni27C4:
    .....
    .....
    @@@..
    ...@.
    .@.@.
    ...@.
    @@@..
    .....
    .....
    .....
    .....
    .....

u+27d8:
uni27D8:
    .....
    .....
    ..@..
    ..@..
    ..@..
    ..@..
    ..@..
    ..@..
    @@@@@
    .....
    .....
    .....

u+27d9:
uni27D9:
    .....
    .....
    @@@@@
    ..@..
    ..@..
    ..@..
    ..@..
    ..@..
    ..@..
    .....
    .....
    .....

u+27dc:
uni27DC:
    .....
    .....
    .....
    .@...
    @.@@@
    .@...
    .....
    .....
    .....
    .....
    .....
    .....

u+27dd:
uni27DD:
    .....
    .....
    .....
    @....
    @@@@@
    @....
    .....
    .....
    .....
    .....
    .....
    .....

u+27de:
uni27DE:
    .....
    .....
    .....
    ....@
    @@@@@
    ....@
    .....
    .....
    .....
    .....
    .....
    .....

u+2864:
uni2864:
    @.@........
    ...........
    @..........
    ...........
    ...........
    ...........
    ...........
    ...........
    ...........
    ...........
    ...........
    ...........

u+2865:
uni2865:
    @..........
    ...........
    ...........
    ...........
    @.@........
    ...........
    @..........
    ...........
    ...........
    ...........
    ...........
    ...........

u+2866:
uni2866:
    @..........
    ...........
    @.@........
    ...........
    @..........
    ...........
    ...........
    ...........
    ...........
    ...........
    ...........
    ...........

u+2867:
uni2867:
    @..........
    ...........
    @..........
    ...........
    @.@........
    ...........
    @..........
    ...........
    ...........
    ...........
    ...........
    ...........

u+2868:
uni2868:
    ..@........
    ...........
    ...........
    ...........
    ..@........
    ...........
    @..........
    ...........
    ...........
    ...........
    ...........
    ...........

u+2869:
uni2869:
    @.@........
    ...........
    ...........
    ...........
    ..@........
    ...........
    @..........
    ...........
    ...........
    ...........
    ...........
    ...........

u+286a:
uni286A:
    ..@........
    ...........
    @..........
    ...........
    ..@........
    ...........
    @..........
    ...........
    ...........
    ...........
    ...........
    ...........

u+286b:
uni286B:
    @.@........
    ...........
    @..........
    ...........
    ..@........
    ...........
    @..........
    ...........
    ...........
    ...........
    ...........
    ...........

u+286c:
uni286C:
    ..@........
    ...........
    ...........
    ...........
    @.@........
    ...........
    @..........
    ...........
    ...........
    ...........
    ...........
    ...........

u+286d:
uni286D:
    @.@........
    ...........
    ...........
    @.@........
    ...........
    @..........
    ...........
    ...........
    ...........
    ...........
    ...........
    ...........

u+286e:
uni286E:
    ..@........
    ...........
    @..........
    ...........
    @.@........
    ...........
    @..........
    ...........
    ...........
    ...........
    ...........
    ...........

u+286f:
uni286F:
    @.@........
    ...........
    @..........
    ...........
    @.@........
    ...........
    @..........
    ...........
    ...........
    ...........
    ...........
    ...........

u+2870:
uni2870:
    ..@........
    ...........
    ..@........
    ...........
    @..........
    ...........
    ...........
    ...........
    ...........
    ...........
    ...........
    ...........

u+2871:
uni2871:
    @..........
    ...........
    ..@........
    ...........
    ..@........
    ...........
    @..........
    ...........
    ...........
    ...........
    ...........
    ...........

u+2872:
uni2872:
    @.@........
    ...........
    ..@........
    ...........
    @..........
    ...........
    ...........
    ...........
    ...........
    ...........
    ...........
    ...........

u+2873:
uni2873:
    @..........
    ...........
    @.@........
    ...........
    ..@........
    ...........
    @..........
    ...........
    ...........
    ...........
    ...........
    ...........

u+2874:
uni2874:
    ..@........
    ...........
    @.@........
    ...........
    @..........
    ...........
    ...........
    ...........
    ...........
    ...........
    ...........
    ...........

u+2875:
uni2875:
    @..........
    ...........
    ..@........
    ...........
    @.@........
    ...........
    @..........
    ...........
    ...........
    ...........
    ...........
    ...........

u+2876:
uni2876:
    @.@........
    ...........
    @.@........
    ...........
    @..........
    ...........
    ...........
    ...........
    ...........
    ...........
    ...........
    ...........

u+2877:
uni2877:
    @..........
    ...........
    @.@........
    ...........
    @.@........
    ...........
    @..........
    ...........
    ...........
    ...........
    ...........
    ...........

u+2878:
uni2878:
    ..@........
    ...........
    ..@........
    ...........
    ..@........
    ...........
    @..........
    ...........
    ...........
    ...........
    ...........
    ...........

u+2879:
uni2879:
    @.@........
    ...........
    ..@........
    ...........
    ..@........
    ...........
    @..........
    ...........
    ...........
    ...........
    ...........
    ...........

u+287a:
uni287A:
    ..@........
    ...........
    @.@........
    ...........
    ..@........
    ...........
    @..........
    ...........
    ...........
    ...........
    ...........
    ...........

u+287b:
uni287B:
    @.@........
    ...........
    @.@........
    ...........
    ..@........
    ...........
    @..........
    ...........
    ...........
    ...........
    ...........
    ...........

u+287c:
uni287C:
    ..@........
    ...........
    ..@........
    ...........
    @.@........
    ...........
    @..........
    ...........
    ...........
    ...........
    ...........
    ...........

u+287d:
uni287D:
    @.@........
    ...........
    ..@........
    ...........
    @.@........
    ...........
    @..........
    ...........
    ...........
    ...........
    ...........
    ...........

u+287e:
uni287E:
    ..@........
    ...........
    @.@........
    ...........
    @.@........
    ...........
    @..........
    ...........
    ...........
    ...........
    ...........
    ...........

u+287f:
uni287F:
    @.@........
    ...........
    @.@........
    ...........
    @.@........
    ...........
    @..........
    ...........
    ...........
    ...........
    ...........
    ...........

u+2880:
uni2880:
    ..@........
    ...........
    ...........
    ...........
    ...........
    ...........
    ...........
    ...........
    ...........
    ...........
    ...........
    ...........

u+2881:
uni2881:
    @..........
    ...........
    ...........
    ...........
    ...........
    ...........
    ..@........
    ...........
    ...........
    ...........
    ...........
    ...........

u+2882:
uni2882:
    @..........
    ...........
    ...........
    ...........
    ..@........
    ...........
    ...........
    ...........
    ...........
    ...........
    ...........
    ...........

u+2883:
uni2883:
    @..........
    ...........
    @..........
    ...........
    ...........
    ...........
    ..@........
    ...........
    ...........
    ...........
    ...........
    ...........

u+2884:
uni2884:
    @..........
    ...........
    ..@........
    ...........
    ...........
    ...........
    ...........
    ...........
    ...........
    ...........
    ...........
    ...........

u+2885:
uni2885:
    @..........
    ...........
    ...........
    ...........
    @..........
    ...........
    ..@........
    ...........
    ...........
    ...........
    ...........
    ...........

u+2886:
uni2886:
    @..........
    ...........
    @..........
    ...........
    ..@........
    ...........
    ...........
    ...........
    ...........
    ...........
    ...........
    ...........

u+2887:
uni2887:
    @..........
    ...........
    @..........
    ...........
    @..........
    ...........
    ..@........
    ...........
    ...........
    ...........
    ...........
    ...........

u+2888:
uni2888:
    @..........
    ...........
    ...........
    ...........
    ...........
    ...........
    @..........
    ...........
    ...........
    ...........
    ...........
    ...........

u+2889:
uni2889:
    @.@........
    ...........
    ...........
    ...........
    ...........
    ...........
    ..@........
    ...........
    ...........
    ...........
    ...........
    ...........

u+288a:
uni288A:
    ..@........
    ...........
    @..........
    ...........
    ...........
    ...........
    ..@........
    ...........
    ...........
    ...........
    ...........
    ...........

u+288b:
uni288B:
    @.@........
    ...........
    @..........
    ...........
    ...........
    ...........
    ..@........
    ...........
    ...........
    ...........
    ...........
    ...........

u+288c:
uni288C:
    ..@........
    ...........
    ...........
    ...........
    @..........
    ...........
    ..@........
    ...........
    ...........
    ...........
    ...........
    ...........

u+288d:
uni288D:
    @.@........
    ...........
    ...........
    @..........
    ...........
    ..@........
    ...........
    ...........
    ...........
    ...........
    ...........
    ...........

u+288e:
uni288E:
    ..@........
    ...........
    @..........
    ...........
    @..........
    ...........
    ..@........
    ...........
    ...........
    ...........
    ...........
    ...........

u+288f:
uni288F:
    @.@........
    ...........
    @..........
    ...........
    @..........
    ...........
    ..@........
    ...........
    ...........
    ...........
    ...........
    ...........

u+2890:
uni2890:
    @..........
    ...........
    ...........
    ...........
    @..........
    ...........
    ...........
    ...........
    ...........
    ...........
    ...........
    ...........

u+2891:
uni2891:
    @..........
    ...........
    ..@........
    ...........
    ...........
    ...........
    ..@........
    ...........
    ...........
    ...........
    ...........
    ...........

u+2892:
uni2892:
    @.@........
    ...........
    ...........
    ...........
    ..@........
    ...........
    ...........
    ...........
    ...........
    ...........
    ...........
    ...........

u+2893:
uni2893:
    @..........
    ...........
    @.@........
    ...........
    ...........
    ...........
    ..@........
    ...........
    ...........
    ...........
    ...........
    ...........

u+2894:
uni2894:
    ..@........
    ...........
    @..........
    ...........
    ..@........
    ...........
    ...........
    ...........
    ...........
    ...........
    ...........
    ...........

u+2895:
uni2895:
    @..........
    ...........
    ..@........
    ...........
    @..........
    ...........
    ..@........
    ...........
    ...........
    ...........
    ...........
    ...........

u+2896:
uni2896:
    @.@........
    ...........
    @..........
    ...........
    ..@........
    ...........
    ...........
    ...........
    ...........
    ...........
    ...........
    ...........

u+2897:
uni2897:
    @..........
    ...........
    @.@........
    ...........
    @..........
    ...........
    ..@........
    ...........
    ...........
    ...........
    ...........
    ...........

u+2898:
uni2898:
    @..........
    ...........
    @..........
    ...........
    ...........
    ...........
    @..........
    ...........
    ...........
    ...........
    ...........
    ...........

u+2899:
uni2899:
    @.@........
    ...........
    ..@........
    ...........
    ...........
    ...........
    ..@........
    ...........
    ...........
    ...........
    ...........
    ...........

u+289a:
uni289A:
    ..@........
    ...........
    @.@........
    ...........
    ...........
    ...........
    ..@........
    ...........
    ...........
    ...........
    ...........
    ...........

u+289b:
uni289B:
    @.@........
    ...........
    @.@........
    ...........
    ...........
    ...........
    ..@........
    ...........
    ...........
    ...........
    ...........
    ...........

u+289c:
uni289C:
    ..@........
    ...........
    ..@........
    ...........
    @..........
    ...........
    ..@........
    ...........
    ...........
    ...........
    ...........
    ...........

u+289d:
uni289D:
    @.@........
    ...........
    ..@........
    ...........
    @..........
    ...........
    ..@........
    ...........
    ...........
    ...........
    ...........
    ...........

u+289e:
uni289E:
    ..@........
    ...........
    @.@........
    ...........
    @..........
    ...........
    ..@........
    ...........
    ...........
    ...........
    ...........
    ...........

u+289f:
uni289F:
    @.@........
    ...........
    @.@........
    ...........
    @..........
    ...........
    ..@........
    ...........
    ...........
    ...........
    ...........
    ...........

u+28a0:
uni28A0:
    @..........
    ...........
    @..........
    ...........
    ...........
    ...........
    ...........
    ...........
    ...........
    ...........
    ...........
    ...........

u+28a1:
uni28A1:
    @..........
    ...........
    ...........
    ...........
    ..@........
    ...........
    ..@........
    ...........
    ...........
    ...........
    ...........
    ...........

u+28a2:
uni28A2:
    @..........
    ...........
    ..@........
    ...........
    ..@........
    ...........
    ...........
    ...........
    ...........
    ...........
    ...........
    ...........

u+28a3:
uni28A3:
    @..........
    ...........
    @..........
    ...........
    ..@........
    ...........
    ..@........
    ...........
    ...........
    ...........
    ...........
    ...........

u+28a4:
uni28A4:
    @.@........
    ...........
    ..@........
    ...........
    ...........
    ...........
    ...........
    ...........
    ...........
    ...........
    ...........
    ...........

u+28a5:
uni28A5:
    @..........
    ...........
    ...........
    ...........
    @.@........
    ...........
    ..@........
    ...........
    ...........
    ...........
    ...........
    ...........

u+28a6:
uni28A6:
    @..........
    ...........
    @.@........
    ...........
    ..@........
    ...........
    ...........
    ...........
    ...........
    ...........
    ...........
    ...........

u+28a7:
uni28A7:
    @..........
    ...........
    @..........
    ...........
    @.@........
    ...........
    ..@........
    ...........
    ...........
    ...........
    ...........
    ...........

u+28a8:
uni28A8:
    @..........
    ...........
    ...........
    ...........
    @..........
    ...........
    @..........
    ...........
    ...........
    ...........
    ...........
    ...........

u+28a9:
uni28A9:
    @.@........
    ...........
    ...........
    ...........
    ..@........
    ...........
    ..@........
    ...........
    ...........
    ...........
    ...........
    ...........

u+28aa:
uni28AA:
    ..@........
    ...........
    @..........
    ...........
    ..@........
    ...........
    ..@........
    ...........
    ...........
    ...........
    ...........
    ...........

u+28ab:
uni28AB:
    @.@........
    ...........
    @..........
    ...........
    ..@........
    ...........
    ..@........
    ...........
    ...........
    ...........
    ...........
    ...........

u+28ac:
uni28AC:
    ..@........
    ...........
    ...........
    ...........
    @.@........
    ...........
    ..@........
    ...........
    ...........
    ...........
    ...........
    ...........

u+28ad:
uni28AD:
    @.@........
    ...........
    ...........
    ...........
    @.@........
    ...........
    ..@........
    ...........
    ...........
    ...........
    ...........
    ...........

u+28ae:
uni28AE:
    ..@........
    ...........
    @..........
    ...........
    @.@........
    ...........
    ..@........
    ...........
    ...........
    ...........
    ...........
    ...........

u+28af:
uni28AF:
    @.@........
    ...........
    @..........
    ...........
    @.@........
    ...........
    ..@........
    ...........
    ...........
    ...........
    ...........
    ...........

u+28b0:
uni28B0:
    ..@........
    ...........
    ..@........
    ...........
    ..@........
    ...........
    ...........
    ...........
    ...........
    ...........
    ...........
    ...........

u+28b1:
uni28B1:
    @..........
    ...........
    ..@........
    ...........
    ..@........
    ...........
    ..@........
    ...........
    ...........
    ...........
    ...........
    ...........

u+28b2:
uni28B2:
    @.@........
    ...........
    ..@........
    ...........
    ..@........
    ...........
    ...........
    ...........
    ...........
    ...........
    ...........
    ...........

u+28b3:
uni28B3:
    @..........
    ...........
    @.@........
    ...........
    ..@........
    ...........
    ..@........
    ...........
    ...........
    ...........
    ...........
    ...........

u+28b4:
uni28B4:
    ..@........
    ...........
    @.@........
    ...........
    ..@........
    ...........
    ...........
    ...........
    ...........
    ...........
    ...........
    ...........

u+28b5:
uni28B5:
    @..........
    ...........
    ..@........
    ...........
    @.@........
    ...........
    ..@........
    ...........
    ...........
    ...........
    ...........
    ...........

u+28b6:
uni28B6:
    @.@........
    ...........
    @.@........
    ...........
    ..@........
    ...........
    ...........
    ...........
    ...........
    ...........
    ...........
    ...........

u+28b7:
uni28B7:
    @..........
    ...........
    @.@........
    ...........
    @.@........
    ...........
    ..@........
    ...........
    ...........
    ...........
    ...........
    ...........

u+28b8:
uni28B8:
    @..........
    ...........
    @..........
    ...........
    @..........
    ...........
    @..........
    ...........
    ...........
    ...........
    ...........
    ...........

u+28b9:
uni28B9:
    @.@........
    ...........
    ..@........
    ...........
    ..@........
    ...........
    ..@........
    ...........
    ...........
    ...........
    ...........
    ...........

u+28ba:
uni28BA:
    ..@........
    ...........
    @.@........
    ...........
    ..@........
    ...........
    ..@........
    ...........
    ...........
    ...........
    ...........
    ...........

u+28bb:
uni28BB:
    @.@........
    ...........
    @.@........
    ...........
    ..@........
    ...........
    ..@........
    ...........
    ...........
    ...........
    ...........
    ...........

u+28bc:
uni28BC:
    ..@........
    ...........
    ..@........
    ...........
    @.@........
    ...........
    ..@........
    ...........
    ...........
    ...........
    ...........
    ...........

u+28bd:
uni28BD:
    @.@........
    ...........
    ..@........
    ...........
    @.@........
    ...........
    ..@........
    ...........
    ...........
    ...........
    ...........
    ...........

u+28be:
uni28BE:
    ..@........
    ...........
    @.@........
    ...........
    @.@........
    ...........
    ..@........
    ...........
    ...........
    ...........
    ...........
    ...........

u+28bf:
uni28BF:
    @.@........
    ...........
    @.@........
    ...........
    @.@........
    ...........
    ..@........
    ...........
    ...........
    ...........
    ...........
    ...........

u+28c0:
uni28C0:
    @.@........
    ...........
    ...........
    ...........
    ...........
    ...........
    ...........
    ...........
    ...........
    ...........
    ...........
    ...........

u+28c1:
uni28C1:
    @..........
    ...........
    ...........
    ...........
    ...........
    ...........
    @.@........
    ...........
    ...........
    ...........
    ...........
    ...........

u+28c2:
uni28C2:
    @..........
    ...........
    ...........
    ...........
    @.@........
    ...........
    ...........
    ...........
    ...........
    ...........
    ...........
    ...........

u+28c3:
uni28C3:
    @..........
    ...........
    @..........
    ...........
    ...........
    ...........
    @.@........
    ...........
    ...........
    ...........
    ...........
    ...........

u+28c4:
uni28C4:
    @..........
    ...........
    @.@........
    ...........
    ...........
    ...........
    ...........
    ...........
    ...........
    ...........
    ...........
    ...........

u+28c5:
uni28C5:
    @..........
    ...........
    ...........
    ...........
    @..........
    ...........
    @.@........
    ...........
    ...........
    ...........
    ...........
    ...........

u+28c6:
uni28C6:
    @..........
    ...........
    @..........
    ...........
    @.@........
    ...........
    ...........
    ...........
    ...........
    ...........
    ...........
    ...........

u+28c7:
uni28C7:
    @..........
    ...........
    @..........
    ...........
    @..........
    ...........
    @.@........
    ...........
    ...........
    ...........
    ...........
    ...........

u+28c8:
uni28C8:
    ..@........
    ...........
    ...........
    ...........
    ...........
    ...........
    @.@........
    ...........
    ...........
    ...........
    ...........
    ...........

u+28c9:
uni28C9:
    @.@........
    ...........
    ...........
    ...........
    ...........
    ...........
    @.@........
    ...........
    ...........
    ...........
    ...........
    ...........

u+28ca:
uni28CA:
    ..@........
    ...........
    @..........
    ...........
    ...........
    ...........
    @.@........
    ...........
    ...........
    ...........
    ...........
    ...........

u+28cb:
uni28CB:
    @.@........
    ...........
    @..........
    ...........
    ...........
    ...........
    @.@........
    ...........
    ...........
    ...........
    ...........
    ...........

u+28cc:
uni28CC:
    ..@........
    ...........
    ...........
    ...........
    @..........
    ...........
    @.@........
    ...........
    ...........
    ...........
    ...........
    ...........

u+28cd:
uni28CD:
    @.@........
    ...........
    ...........
    ...........
    @..........
    ...........
    @.@........
    ...........
    ...........
    ...........
    ...........
    ...........

u+28ce:
uni28CE:
    ..@........
    ...........
    @..........
    ...........
    @..........
    ...........
    @.@........
    ...........
    ...........
    ...........
    ...........
    ...........

u+28cf:
uni28CF:
    @.@........
    ...........
    @..........
    ...........
    @..........
    ...........
    @.@........
    ...........
    ...........
    ...........
    ...........
    ...........

u+28d0:
uni28D0:
    ..@........
    ...........
    ...........
    ...........
    @.@........
    ...........
    ...........
    ...........
    ...........
    ...........
    ...........
    ...........

u+28d1:
uni28D1:
    @..........
    ...........
    ..@........
    ...........
    ...........
    ...........
    @.@........
    ...........
    ...........
    ...........
    ...........
    ...........

u+28d2:
uni28D2:
    @.@........
    ...........
    ...........
    ...........
    @.@........
    ...........
    ...........
    ...........
    ...........
    ...........
    ...........
    ...........

u+28d3:
uni28D3:
    @..........
    ...........
    @.@........
    ...........
    ...........
    ...........
    @.@........
    ...........
    ...........
    ...........
    ...........
    ...........

u+28d4:
uni28D4:
    ..@........
    ...........
    @..........
    ...........
    @.@........
    ...........
    ...........
    ...........
    ...........
    ...........
    ...........
    ...........

u+28d5:
uni28D5:
    @..........
    ...........
    ..@........
    ...........
    @..........
    ...........
    @.@........
    ...........
    ...........
    ...........
    ...........
    ...........

u+28d6:
uni28D6:
    @.@........
    ...........
    @..........
    ...........
    @.@........
    ...........
    ...........
    ...........
    ...........
    ...........
    ...........
    ...........

u+28d7:
uni28D7:
    @..........
    ...........
    @.@........
    ...........
    @..........
    ...........
    @.@........
    ...........
    ...........
    ...........
    ...........
    ...........

u+28d8:
uni28D8:
    ..@........
    ...........
    ..@........
    ...........
    ...........
    ...........
    @.@........
    ...........
    ...........
    ...........
    ...........
    ...........

u+28d9:
uni28D9:
    @.@........
    ...........
    ..@........
    ...........
    ...........
    ...........
    @.@........
    ...........
    ...........
    ...........
    ...........
    ...........

u+28da:
uni28DA:
    ..@........
    ...........
    @.@........
    ...........
    ...........
    ...........
    @.@........
    ...........
    ...........
    ...........
    ...........
    ...........

u+28db:
uni28DB:
    @.@........
    ...........
    @.@........
    ...........
    ...........
    ...........
    @.@........
    ...........
    ...........
    ...........
    ...........
    ...........

u+28dc:
uni28DC:
    ..@........
    ...........
    ..@........
    ...........
    @..........
    ...........
    @.@........
    ...........
    ...........
    ...........
    ...........
    ...........

u+28dd:
uni28DD:
    @.@........
    ...........
    ..@........
    ...........
    @..........
    ...........
    @.@........
    ...........
    ...........
    ...........
    ...........
    ...........

u+28de:
uni28DE:
    ..@........
    ...........
    @.@........
    ...........
    @..........
    ...........
    @.@........
    ...........
    ...........
    ...........
    ...........
    ...........

u+28df:
uni28DF:
    @.@........
    ...........
    @.@........
    ...........
    @..........
    ...........
    @.@........
    ...........
    ...........
    ...........
    ...........
    ...........

u+28e0:
uni28E0:
    ..@........
    ...........
    @.@........
    ...........
    ...........
    ...........
    ...........
    ...........
    ...........
    ...........
    ...........
    ...........

u+28e1:
uni28E1:
    @..........
    ...........
    ...........
    ...........
    ..@........
    ...........
    @.@........
    ...........
    ...........
    ...........
    ...........
    ...........

u+28e2:
uni28E2:
    @..........
    ...........
    ..@........
    ...........
    @.@........
    ...........
    ...........
    ...........
    ...........
    ...........
    ...........
    ...........

u+28e3:
uni28E3:
    @..........
    ...........
    @..........
    ...........
    ..@........
    ...........
    @.@........
    ...........
    ...........
    ...........
    ...........
    ...........

u+28e4:
uni28E4:
    @.@........
    ...........
    @.@........
    ...........
    ...........
    ...........
    ...........
    ...........
    ...........
    ...........
    ...........
    ...........

u+28e5:
uni28E5:
    @..........
    ...........
    ...........
    @.@........
    ...........
    @.@........
    ...........
    ...........
    ...........
    ...........
    ...........
    ...........

u+28e6:
uni28E6:
    @..........
    ...........
    @.@........
    ...........
    @.@........
    ...........
    ...........
    ...........
    ...........
    ...........
    ...........
    ...........

u+28e7:
uni28E7:
    @..........
    ...........
    @..........
    ...........
    @.@........
    ...........
    @.@........
    ...........
    ...........
    ...........
    ...........
    ...........

u+28e8:
uni28E8:
    ..@........
    ...........
    ...........
    ...........
    ..@........
    ...........
    @.@........
    ...........
    ...........
    ...........
    ...........
    ...........

u+28e9:
uni28E9:
    @.@........
    ...........
    ...........
    ...........
    ..@........
    ...........
    @.@........
    ...........
    ...........
    ...........
    ...........
    ...........

u+28ea:
uni28EA:
    ..@........
    ...........
    @..........
    ...........
    ..@........
    ...........
    @.@........
    ...........
    ...........
    ...........
    ...........
    ...........

u+28eb:
uni28EB:
    @.@........
    ...........
    @..........
    ...........
    ..@........
    ...........
    @.@........
    ...........
    ...........
    ...........
    ...........
    ...........

u+28ec:
uni28EC:
    ..@........
    ...........
    ...........
    ...........
    @.@........
    ...........
    @.@........
    ...........
    ...........
    ...........
    ...........
    ...........

u+28ed:
uni28ED:
    @.@........
    ...........
    ...........
    @.@........
    ...........
    @.@........
    ...........
    ...........
    ...........
    ...........
    ...........
    ...........

u+28ee:
uni28EE:
    ..@........
    ...........
    @..........
    ...........
    @.@........
    ...........
    @.@........
    ...........
    ...........
    ...........
    ...........
    ...........

u+28ef:
uni28EF:
    @.@........
    ...........
    @..........
    ...........
    @.@........
    ...........
    @.@........
    ...........
    ...........
    ...........
    ...........
    ...........

u+28f0:
uni28F0:
    ..@........
    ...........
    ..@........
    ...........
    @.@........
    ...........
    ...........
    ...........
    ...........
    ...........
    ...........
    ...........

u+28f1:
uni28F1:
    @..........
    ...........
    ..@........
    ...........
    ..@........
    ...........
    @.@........
    ...........
    ...........
    ...........
    ...........
    ...........

u+28f2:
uni28F2:
    @.@........
    ...........
    ..@........
    ...........
    @.@........
    ...........
    ...........
    ...........
    ...........
    ...........
    ...........
    ...........

u+28f3:
uni28F3:
    @..........
    ...........
    @.@........
    ...........
    ..@........
    ...........
    @.@........
    ...........
    ...........
    ...........
    ...........
    ...........

u+28f4:
uni28F4:
    ..@........
    ...........
    @.@........
    ...........
    @.@........
    ...........
    ...........
    ...........
    ...........
    ...........
    ...........
    ...........

u+28f5:
uni28F5:
    @..........
    ...........
    ..@........
    ...........
    @.@........
    ...........
    @.@........
    ...........
    ...........
    ...........
    ...........
    ...........

u+28f6:
uni28F6:
    @.@........
    ...........
    @.@........
    ...........
    @.@........
    ...........
    ...........
    ...........
    ...........
    ...........
    ...........
    ...........

u+28f7:
uni28F7:
    @..........
    ...........
    @.@........
    ...........
    @.@........
    ...........
    @.@........
    ...........
    ...........
    ...........
    ...........
    ...........

u+28f8:
uni28F8:
    ..@........
    ...........
    ..@........
    ...........
    ..@........
    ...........
    @.@........
    ...........
    ...........
    ...........
    ...........
    ...........

u+28f9:
uni28F9:
    @.@........
    ...........
    ..@........
    ...........
    ..@........
    ...........
    @.@........
    ...........
    ...........
    ...........
    ...........
    ...........

u+28fa:
uni28FA:
    ..@........
    ...........
    @.@........
    ...........
    ..@........
    ...........
    @.@........
    ...........
    ...........
    ...........
    ...........
    ...........

u+28fb:
uni28FB:
    @.@........
    ...........
    @.@........
    ...........
    ..@........
    ...........
    @.@........
    ...........
    ...........
    ...........
    ...........
    ...........

u+28fc:
uni28FC:
    ..@........
    ...........
    ..@........
    ...........
    @.@........
    ...........
    @.@........
    ...........
    ...........
    ...........
    ...........
    ...........

u+28fd:
uni28FD:
    @.@........
    ...........
    ..@........
    ...........
    @.@........
    ...........
    @.@........
    ...........
    ...........
    ...........
    ...........
    ...........

u+28fe:
uni28FE:
    ..@........
    ...........
    @.@........
    ...........
    @.@........
    ...........
    @.@........
    ...........
    ...........
    ...........
    ...........
    ...........

u+28ff:
uni28FF:
    @.@........
    ...........
    @.@........
    ...........
    @.@........
    ...........
    @.@........
    ...........
    ...........
    ...........
    ...........
    ...........

u+2919:
uni2919:
    .....
    .....
    ....@
    ...@.
    @@@..
    ...@.
    ....@
    .....
    .....
    .....
    .....
    .....

u+291a:
uni291A:
    .....
    .....
    @....
    .@...
    ..@@@
    .@...
    @....
    .....
    .....
    .....
    .....
    .....

u+291b:
uni291B:
    .....
    .....
    .@..@
    @..@.
    ..@..
    @..@.
    .@..@
    .....
    .....
    .....
    .....
    .....

u+291c:
uni291C:
    .....
    .....
    @..@.
    .@..@
    ..@..
    .@..@
    @..@.
    .....
    .....
    .....
    .....
    .....

u+2b5e:
uni2B5E:
    ...........
    ...........
    ...........
    ...........
    @@@@@......
    ...........
    @@@@@......
    ...........
    ...........
    ...........
    ...........
    ...........

u+2b5f:
uni2B5F:
    ...........
    ...........
    ...........
    ...........
    @@@@@......
    ...........
    ...........
    ...........
    ...........
    ...........
    ...........
    ...........

u+2b60:
uni2B60:
    .....
    .....
    @....
    @....
    @.@..
    @@@@.
    @.@..
    @.@..
    @@@..
    @....
    @....
    .....

u+2b61:
uni2B61:
    .....
    .....
    @....
    @....
    @....
    @@@..
    .....
    .@@..
    .@.@.
    .@.@.
    .@.@.
    .....

u+2b62:
uni2B62:
    .....
    .....
    .@@..
    .@...
    @@...
    .@.@.
    .@.@@
    @@.@.
    ...@.
    ...@@
    .....
    .....

u+2b64:
uni2B64:
    .....
    .....
    .@@..
    @..@.
    @..@.
    @@@@.
    @@@@.
    @@.@.
    @@@@.
    .....
    .....
    .....

u+2b80:
uni2B80:
    .....
    .....
    @....
    @@...
    @@@..
    @@@@.
    @@@@@
    @@@@.
    @@@..
    @@...
    @....
    .....

u+2b81:
uni2B81:
    .....
    .....
    @....
    .@...
    ..@..
    ...@.
    ....@
    ...@.
    ..@..
    .@...
    @....
    .....

u+2b82:
uni2B82:
    .....
    .....
    ....@
    ...@@
    ..@@@
    .@@@@
    @@@@@
    .@@@@
    ..@@@
    ...@@
    ....@
    .....

u+2b83:
uni2B83:
    .....
    .....
    ....@
    ...@.
    ..@..
    .@...
    @....
    .@...
    ..@..
    ...@.
    ....@
    .....

u+30c3:
uni30C3:
    ...........
    ...........
    @..@.......
    ...........
    @..@.......
    .@@........
    ...........
    ...........
    ...........
    ...........
    ...........
    ...........

u+30c4:
uni30C4:
    ...........
    ...........
    @..@.......
    ...........
    ...........
    @..@.......
    @..@.......
    .@@........
    ...........
    ...........
    ...........
    ...........

u+5350:
uni5350:
    ...........
    ...........
    @.@@@......
    @.@........
    @.@........
    @@@@@......
    ..@.@......
    ..@.@......
    @@@.@......
    ...........
    ...........
    ...........

u+e09e:
uniE09E:
    ...........
    ...........
    ...........
    @@@@@......
    ...........
    @@@@@......
    ...........
    ...........
    ...........
    ...........
    ...........
    ...........

u+e09f:
uniE09F:
    ...........
    ...........
    ...........
    ...........
    @@@@@......
    ...........
    ...........
    ...........
    ...........
    ...........
    ...........
    ...........

u+e0a0:
uniE0A0:
    .....
    .....
    @....
    @.@..
    @.@@.
    @.@..
    @.@..
    @@...
    @....
    @....
    .....
    .....

u+e0a1:
uniE0A1:
    .....
    .....
    @....
    @....
    @....
    @@@..
    .....
    .@@..
    .@.@.
    .@.@.
    .@.@.
    .....

u+e0a2:
uniE0A2:
    .....
    .....
    .@@..
    @..@.
    @..@.
    @@@@.
    @@.@.
    @@.@.
    @@@@.
    .....
    .....
    .....

u+e0b0:
uniE0B0:
    .....
    @....
    @@...
    @@@..
    @@@@.
    @@@@@
    @@@@.
    @@@..
    @@...
    @....
    .....
    .....

u+e0b1:
uniE0B1:
    .....
    @....
    .@...
    ..@..
    ...@.
    ....@
    ...@.
    ..@..
    .@...
    @....
    .....
    .....

u+e0b2:
uniE0B2:
    .....
    ....@
    ...@@
    ..@@@
    .@@@@
    @@@@@
    .@@@@
    ..@@@
    ...@@
    ....@
    .....
    .....

u+e0b3:
uniE0B3:
    .....
    ....@
    ...@.
    ..@..
    .@...
    @....
    .@...
    ..@..
    ...@.
    ....@
    .....
    .....

u+e0b4:
uniE0B4:
    @@@@@......
    .@@@@......
    ..@@@......
    ...@@......
    ....@......
    ...........
    ....@......
    ...@@......
    ..@@@......
    .@@@@......
    @@@@@......
    ...........

u+e0b5:
uniE0B5:
    @@@@@......
    @@@@.......
    @@@........
    @@.........
    @..........
    ...........
    @..........
    @@.........
    @@@........
    @@@@.......
    @@@@@......
    ...........

u+e0c0:
uniE0C0:
    .....
    .....
    .@...
    @.@..
    .@.@.
    @.@.@
    .@..@
    .....
    .....
    .....
    .....
    .....

u+e0c1:
uniE0C1:
    .....
    .....
    ..@..
    ...@.
    ....@
    ...@.
    ..@..
    .....
    .....
    .....
    .....
    .....

u+e0c2:
uniE0C2:
    .....
    .@.@.
    .@.@.
    @@@@@
    .@@@.
    .@@@.
    ..@..
    ..@..
    ..@..
    .....
    .....
    .....

u+e0c3:
uniE0C3:
    .....
    .....
    @....
    .@@@@
    .....
    .@@@@
    @....
    .....
    .....
    .....
    .....
    .....

u+e0c4:
uniE0C4:
    .....
    .....
    @.@..
    .@.@@
    ..@..
    .@.@@
    @.@..
    .....
    .....
    .....
    .....
    .....

u+e0c5:
uniE0C5:
    .....
    .....
    ....@
    @@@@.
    .....
    @@@@.
    ....@
    .....
    .....
    .....
    .....
    .....

u+e0c6:
uniE0C6:
    .....
    .....
    ..@.@
    @@.@.
    ..@..
    @@.@.
    ..@.@
    .....
    .....
    .....
    .....
    .....

u+e0d1:
uniE0D1:
    .....
    .....
    ..@..
    .@...
    @....
    .@...
    ..@..
    .....
    .....
    .....
    .....
    .....

u+f031:
uniF031:
    .....
    .....
    @@@@.
    @@@@.
    @..@.
    @..@.
    @@@@.
    .....
    .....
    .....
    .....
    .....

u+f033:
uniF033:
    .....
    .....
    ..@..
    .@@..
    @@@..
    .@@..
    ..@..
    .....
    .....
    .....
    .....
    .....

u+f034:
uniF034:
    .....
    .....
    @....
    @@...
    @@@..
    @@...
    @....
    .....
    .....
    .....
    .....
    .....

u+f035:
uniF035:
    .....
    .....
    .....
    ..@..
    .@@@.
    @@@@@
    .....
    .....
    .....
    .....
    .....
    .....

u+f036:
uniF036:
    .....
    .....
    .....
    @@@@@
    .@@@.
    ..@..
    .....
    .....
    .....
    .....
    .....
    .....

u+f037:
uniF037:
    .....
    .....
    .....
    .@.@.
    @@@@.
    .@.@.
    .....
    .....
    .....
    .....
    .....
    .....

u+f038:
uniF038:
    .....
    .....
    .....
    @.@..
    @@@@.
    @.@..
    .....
    .....
    .....
    .....
    .....
    .....

u+f039:
uniF039:
    .....
    .....
    @....
    @.@.@
    @@@@@
    @.@.@
    @....
    .....
    .....
    .....
    .....
    .....

u+f03a:
uniF03A:
    .....
    .....
    ....@
    @.@.@
    @@@@@
    @.@.@
    ....@
    .....
    .....
    .....
    .....
    .....

u+f03b:
uniF03B:
    .....
    .....
    @.@..
    @.@..
    @.@..
    @.@..
    .....
    .....
    .....
    .....
    .....
    .....

u+f03c:
uniF03C:
    .....
    .....
    @@@@.
    @@@@.
    @@@@.
    @@@@.
    .....
    .....
    .....
    .....
    .....
    .....

u+f03d:
uniF03D:
    .....
    .....
    .@@..
    @@@@.
    @@@@.
    .@@..
    .....
    .....
    .....
    .....
    .....
    .....

u+f057:
uniF057:
    .....
    @....
    @@...
    @@@@.
    @@@@.
    @@@@.
    @@...
    @....
    .....
    .....
    .....
    .....

u+f058:
uniF058:
    .....
    ...@.
    ..@@.
    @@@@.
    @@@@.
    @@@@.
    ..@@.
    ...@.
    .....
    .....
    .....
    .....

u+f059:
uniF059:
    .....
    .....
    .@.@.
    @@@@@
    @@@@@
    .@@@.
    ..@..
    .....
    .....
    .....
    .....
    .....

u+f061:
uniF061:
    .....
    .....
    ....@
    @@.@@
    .@@@.
    ..@..
    .....
    .....
    .....
    .....
    .....
    .....

u+f073:
uniF073:
    .@@..
    @@@@.
    @..@@
    @..@@
    ..@@.
    .@@..
    .@@..
    .....
    .@@..
    .....
    .....
    .....

u+f078:
uniF078:
    .....
    .....
    .@@@.
    @@..@
    @.@.@
    @..@@
    .@@@.
    .....
    .....
    .....
    .....
    .....

u+f079:
uniF079:
    .....
    .....
    .@@@.
    @...@
    @@@@@
    @...@
    .@@@.
    .....
    .....
    .....
    .....
    .....

u+f07e:
uniF07E:
    .....
    .....
    ...@.
    ..@..
    .@@@.
    @@@..
    .@...
    @....
    .....
    .....
    .....
    .....

u+f0cf:
uniF0CF:
    .....
    .....
    .@@..
    @..@.
    @..@.
    @@@@.
    @@.@.
    @@.@.
    @@@@.
    .....
    .....
    .....

u+f0d0:
uniF0D0:
    .....
    .....
    .@@..
    @..@.
    ...@.
    ...@.
    @@@@.
    @@.@.
    @@.@.
    @@@@.
    .....
    .....

u+f0d1:
uniF0D1:
    .....
    .@@..
    .@@..
    .@...
    .@...
    .@...
    @.@..
    .@...
    .....
    .....
    .....
    .....

u+f0d5:
uniF0D5:
    .....
    .....
    ..@..
    .@..@
    @@@@.
    @..@@
    @..@.
    @@@@.
    @.@.@
    .....
    .....
    .....

u+f0d6:
uniF0D6:
    .....
    .....
    ...@.
    @.@..
    .@..@
    @@@@.
    @..@@
    @.@@@
    @@@@@
    @@@@@
    .....
    .....

u+f0d7:
uniF0D7:
    .....
    .....
    .....
    .....
    .@@..
    @..@@
    @.@@@
    .@@@@
    .....
    .....
    .....
    .....

u+f0d8:
uniF0D8:
    .....
    .@@..
    @..@@
    @.@@@
    .@@@@
    .....
    ..@.@
    .@.@.
    .....
    .....
    .....
    .....

u+f0d9:
uniF0D9:
    .....
    .....
    .....
    .....
    .....
    ...@.
    .@@@@
    @@@@@
    .....
    .....
    .....
    .....

u+f0da:
uniF0DA:
    .....
    ...@.
    .@@@@
    @@@@@
    .....
    @.@.@
    .....
    .@.@.
    .....
    .....
    .....
    .....

u+f0db:
uniF0DB:
    .....
    .....
    ...@.
    .@@@@
    @@@@@
    .....
    @.@.@
    .@.@.
    .....
    .....
    .....
    .....

u+f0dc:
uniF0DC:
    .....
    ...@.
    .@@@@
    @@@@@
    ...@.
    ..@@.
    ..@..
    .@...
    .....
    .....
    .....
    .....

u+f0de:
uniF0DE:
    .....
    .....
    .@.@.
    @.@..
    .....
    ...@.
    ..@.@
    .....
    .@.@.
    @.@..
    .....
    .....

u+f0df:
uniF0DF:
    .....
    .....
    @.@.@
    .@.@.
    @.@.@
    .@.@.
    @.@.@
    .....
    .....
    .....
    .....
    .....

u+f0e0:
uniF0E0:
    .....
    .....
    .@@@.
    @.@@@
    @..@@
    @..@@
    .@@@.
    .....
    .....
    .....
    .....
    .....

u+f0ed:
uniF0ED:
    .....
    .....
    ..@..
    ..@..
    @...@
    .@.@.
    .....
    .....
    .....
    .....
    .....
    .....

u+f0ee:
uniF0EE:
    .....
    .....
    .....
    .....
    .....
    .....
    .@.@.
    @...@
    ..@..
    ..@..
    .....
    .....

u+f0ef:
uniF0EF:
    .....
    ..@..
    ...@.
    .....
    .@@..
    .....
    ...@.
    ..@..
    .....
    .....
    .....
    .....

u+f0f0:
uniF0F0:
    .....
    .@...
    @....
    .....
    .@@..
    .....
    @....
    .@...
    .....
    .....
    .....
    .....

